<svg id="Layer_1" enable-background="new 0 0 512 512" height="512" viewBox="0 0 512 512" width="512" xmlns="http://www.w3.org/2000/svg"><g><g><path d="m506.875 335.45c-.428-.239-.864-.461-1.294-.696l-77.147-230.243c-2.957-9.023-10.093-16.208-19.087-19.216-15.763-5.278-32.881 3.256-38.156 19.017l-28.806 85.971-56.508-168.64c-3.08-9.397-10.512-16.88-19.88-20.016-16.417-5.493-34.249 3.393-39.741 19.808l-53.009 158.202-29.22-87.205c-2.782-8.492-9.497-15.253-17.963-18.086-14.84-4.966-30.948 3.066-35.913 17.898l-80.713 240.888c-1.449.75-2.887 1.522-4.313 2.318-3.164 1.767-5.125 5.107-5.125 8.731v157.817c0 5.523 4.478 10 10 10h492c5.522 0 10-4.477 10-10v-157.817c0-3.624-1.961-6.964-5.125-8.731zm-327.266-111.849c11.181-1.699 17.799-8.98 22.794-14.48 5.086-5.602 7.761-8.294 12.93-8.294 5.17 0 7.844 2.692 12.931 8.294 5.691 6.266 13.484 14.848 27.736 14.848 14.253 0 22.046-8.583 27.737-14.849 5.086-5.602 7.761-8.294 12.93-8.294 5.17 0 7.844 2.692 12.931 8.294 4.827 5.315 11.182 12.276 21.692 14.273l-41.396 123.543c-11.021-2.391-22.369-3.623-33.894-3.623-16.455 0-32.55 2.511-47.844 7.33l10.283-38.376c1.43-5.335-1.736-10.818-7.071-12.248-5.336-1.429-10.817 1.737-12.247 7.071l-12.656 47.23c-12.634-11.011-26.742-19.835-41.852-26.279zm76.391 139.714c73.585 0 133.227 56.051 138.324 128.684h-276.647c5.098-72.632 64.742-128.684 138.323-128.684zm53.15-10.899 29.551-88.193c2.502-2.181 4.639-4.533 6.582-6.672 5.087-5.601 7.762-8.293 12.932-8.293s7.844 2.692 12.931 8.294c5.691 6.266 13.484 14.848 27.736 14.848 14.253 0 22.046-8.583 27.737-14.849 5.086-5.602 7.761-8.294 12.93-8.294 5.171 0 7.846 2.692 12.934 8.294 2.581 2.842 5.435 5.969 9.032 8.637l19.337 57.709c-16.42-5.589-33.751-8.502-51.226-8.502-40.293 0-78.308 14.943-107.72 42.188-4.176-1.907-8.43-3.632-12.756-5.167zm81.005-241.752c1.775-5.307 7.541-8.178 12.845-6.402 3.072 1.028 5.415 3.389 6.449 6.542l40.245 120.109c-2.977-1.024-6.323-1.655-10.145-1.655-14.252 0-22.045 8.582-27.736 14.848-5.087 5.602-7.761 8.294-12.931 8.294-5.169 0-7.844-2.692-12.93-8.294-5.691-6.266-13.484-14.849-27.737-14.849-2.993 0-5.686.395-8.149 1.051zm-144.934-82.878c1.994-5.961 8.468-9.188 14.43-7.193 3.452 1.155 6.084 3.808 7.242 7.341l55.454 165.502c-5.516-5.89-13.067-12.609-25.679-12.609-14.252 0-22.045 8.582-27.736 14.848-5.087 5.602-7.761 8.294-12.931 8.294-5.169 0-7.844-2.692-12.93-8.294-5.691-6.266-13.484-14.849-27.737-14.849-12.538 0-20.074 6.641-25.582 12.504zm-136.105 70.809c1.465-4.378 6.216-6.749 10.6-5.283 2.536.849 4.469 2.798 5.326 5.411l31.889 95.172c-13.421.509-20.907 8.753-26.42 14.824-5.087 5.602-7.761 8.294-12.93 8.294s-7.844-2.693-12.931-8.294c-5.654-6.226-13.383-14.737-27.458-14.848zm-39.519 117.944c2.423-1.941 4.512-2.668 7.316-2.668 5.169 0 7.844 2.693 12.931 8.294 5.691 6.267 13.484 14.849 27.737 14.849 14.252 0 22.046-8.582 27.736-14.848 5.087-5.602 7.761-8.294 12.931-8.294 1.231 0 2.324.154 3.368.477l-35.865 107.036c-13.941-3.941-28.505-5.988-43.376-5.988-16.489 0-32.852 2.592-48.442 7.579zm-49.597 133.654c19.243-9.695 40.686-14.796 62.375-14.796 32.888 0 64.074 11.409 88.996 32.331-9.283 5.871-18.02 12.74-26.059 20.567-28.432 27.682-45.23 64.332-47.675 103.705h-77.637zm472 141.805h-77.636c-2.445-39.369-19.24-76.017-47.669-103.698-8.041-7.829-16.78-14.7-26.065-20.573 24.92-20.925 56.088-32.331 88.996-32.331 21.69 0 43.132 5.101 62.375 14.796v141.806z"/><path d="m194.501 449.401c5.522 0 10-4.477 10-10s-4.478-10-10-10h-.008c-5.522 0-9.996 4.477-9.996 10s4.482 10 10.004 10z"/><path d="m278.501 425.401c5.522 0 10-4.477 10-10s-4.478-10-10-10h-.008c-5.522 0-9.996 4.477-9.996 10s4.482 10 10.004 10z"/><path d="m445.301 396.6c5.522 0 10-4.477 10-10s-4.478-10-10-10h-.007c-5.522 0-9.997 4.477-9.997 10s4.481 10 10.004 10z"/><path d="m339.701 463.8c5.522 0 10-4.477 10-10s-4.478-10-10-10h-.008c-5.522 0-9.996 4.477-9.996 10s4.482 10 10.004 10z"/><path d="m75.7 389.8h-.007c-5.522 0-9.997 4.477-9.997 10s4.481 10 10.004 10 10-4.477 10-10-4.477-10-10-10z"/><path d="m217.85 275.88c.864.23 1.73.34 2.583.34 4.42 0 8.464-2.953 9.656-7.426l.002-.007c1.424-5.336-1.75-10.813-7.087-12.235-5.332-1.422-10.817 1.753-12.239 7.089-1.424 5.336 1.749 10.815 7.085 12.239z"/></g></g></svg>