<svg id="Capa_1" enable-background="new 0 0 512 512" height="512" viewBox="0 0 512 512" width="512" xmlns="http://www.w3.org/2000/svg"><path d="m502 316c0 49.71-42.29 90-92 90-111.61 0-196.37 0-308 0-49.71 0-92-40.29-92-90 0-62.32 63.83-105.52 122.11-84.84-2.87-67.89 56.04-125.16 123.89-125.16 68.34 0 126.78 56.92 123.89 125.16 58.22-20.66 122.11 22.44 122.11 84.84z" fill="#ecf2f3"/><circle cx="256" cy="406" r="10"/><path d="m102 416h109c5.522 0 10-4.477 10-10s-4.478-10-10-10h-109c-44.448 0-82-36.636-82-80 0-56.162 57.729-93.527 108.767-75.416 3.13 1.111 6.611.594 9.284-1.38s4.191-5.146 4.051-8.467c-2.648-62.625 52.137-114.737 113.898-114.737 62.224 0 116.566 51.758 113.898 114.737-.141 3.32 1.378 6.494 4.051 8.468s6.151 2.491 9.285 1.38c51.41-18.247 108.766 19.6 108.766 75.415 0 43.364-37.552 80-82 80h-109c-5.522 0-10 4.477-10 10s4.478 10 10 10h109c55.493 0 102-44.918 102-100 0-64.843-61.459-110.496-122.276-97.943-4.507-68.334-64.904-122.057-133.724-122.057-68.259 0-129.116 53.912-133.712 122.06-60.778-12.552-122.288 33.061-122.288 97.94 0 55.048 46.477 100 102 100z"/></svg>