<svg id="Capa_1" enable-background="new 0 0 512 512" height="512" viewBox="0 0 512 512" width="512" xmlns="http://www.w3.org/2000/svg"><path d="m424.71 181c-.02 0-.04 0-.06 0-5.75 0-11.46.67-17.06 1.98l-.68.16c-5.56-18.54-22.56-32.14-42.91-32.14-8.27 0-15.92 2.39-22.58 6.29-15.43-38.79-56.13-66.29-100.42-66.29-53.32 0-99.88 39.89-106.63 91.37-.09.02-.18.03-.26.05.03 0 .06-.01.09-.01-.11.02-.22.04-.33.06-.04.01-.08.02-.11.02-.05.01-.1.02-.15.03-30.76 5.98-57.43 30.49-62.39 61.44l-.02.17c-1.04-.41-10.55-.82-22.25-.01-21.92 1.53-38.95 19.75-38.95 41.72 0 24.94 20.21 45.16 45.15 45.16h56.01l.01.01c-5.19 8.79-8.17 19.02-8.17 29.99v.94c0 32.63 26.44 59.06 59.06 59.06h216.94c33.14 0 60-26.86 60-60 0-11.05-2.99-21.41-8.2-30.3 38.23-3.44 71.2-35.57 71.2-74.7v-.71c0-41.03-36.26-74.29-77.29-74.29z" fill="#f3eff0"/><path d="m424.65 171c-3.82 0-7.653.263-11.466.786-9.098-18.726-27.896-30.786-49.184-30.786-6.046 0-11.952 1.011-17.654 3.015-18.701-36.221-59.321-63.015-105.346-63.015-55.77 0-104.872 39.898-115.4 93.114-30.055 8.062-54.264 31.312-62.315 59.537-7.07-.053-14.514.458-15.032.494-27.057 1.888-48.253 24.595-48.253 51.705 0 30.41 24.74 55.15 55.15 55.14h40.808c-1.949 6.462-2.958 13.201-2.958 20.01v.94c0 38.08 30.98 69.06 69.06 69.06h63.939c5.523 0 10-4.477 10-10s-4.477-10-10-10h-63.939c-27.052 0-49.06-22.008-49.06-49.06v-.94c0-18.22 10.006-34.535 25.625-43.352 2.655-1.499 4.482-4.127 4.96-7.139 2.065-12.994 11.165-23.582 23.748-27.631 3.548-1.142 6.167-4.162 6.794-7.836 5.175-30.303 34.549-54.042 66.873-54.042 31.529 0 60.825 22.894 66.695 52.119.963 4.792 5.414 8.773 11.752 7.883 17.686.163 34.11 9.978 42.945 25.698 4.264 7.582 12.085 4.3 16.607 4.3 27.072 0 50 21.923 50 50 0 27.57-22.43 50-50 50h-63.001c-5.522 0-10 4.477-10 10s4.478 10 10 10h63.002c38.598 0 70-31.402 70-70 0-7.745-1.284-15.404-3.762-22.661 37.445-9.412 66.762-42.889 66.762-82.339v-.71c0-45.69-39.974-84.29-87.35-84.29zm67.35 85c0 30.754-24.768 58.319-56.299 63.952-13.082-18.008-34.236-28.952-56.701-28.952-.942 0-1.883.034-2.809.102-11.836-16.991-30.51-27.936-50.91-29.813-10.918-34.877-45.739-60.289-84.281-60.289-39.562 0-75.998 27.274-85.392 64.979-15.418 6.858-26.739 20.307-30.817 36.688-7.467 4.885-13.911 11.127-19.014 18.333h-50.627c-19.382 0-35.15-15.768-35.15-35.16 0-16.64 13.022-30.584 29.641-31.744 10.142-.702 17.566-.4 19.311-.222 2.499.576 5.148.174 7.382-1.163 2.648-1.584 4.416-4.302 4.792-7.363 4.232-25.819 26.57-47.603 54.393-53.012.017-.003.033-.009.05-.012.142-.026.283-.05.426-.081.049-.01.098-.02.145-.029 4.464-.833 7.599-4.372 8.146-8.543 6.078-46.358 48.56-82.671 96.714-82.671 39.605 0 77.079 24.667 91.128 59.986 1.077 2.708 3.283 4.812 6.04 5.76 2.754.948 5.789.647 8.305-.827 5.575-3.264 11.471-4.919 17.527-4.919 15.449 0 28.845 10.052 33.332 25.013 1.519 5.067 6.724 8.072 11.872 6.86l.663-.156c4.871-1.14 9.845-1.717 14.843-1.717 36.475 0 67.29 29.441 67.29 64.29z"/><circle cx="270.999" cy="421" r="10"/></svg>