<svg id="Capa_1" enable-background="new 0 0 512 512" height="512" viewBox="0 0 512 512" width="512" xmlns="http://www.w3.org/2000/svg"><g clip-rule="evenodd" fill-rule="evenodd"><path d="m44.469 103.316c0 47.064 38.097 85.232 85.151 85.345l8.504-12.921 47.735-72.538c7.568-11.504 17.518-17.341 27.496-17.511-8.108-38.676-42.435-67.691-83.537-67.691-47.139 0-85.349 38.195-85.349 85.316z" fill="#ffda8f"/><path d="m190.762 175.656s9.212-7.707 23.017-8.217c13.833.51 23.045 8.217 23.045 8.217 26.702 18.163 50.059 1.813 52.638.085l-47.735-72.538c-7.795-11.844-18.113-17.681-28.374-17.511-9.978.17-19.927 6.007-27.496 17.511l-47.735 72.538c2.553 1.728 25.938 18.077 52.64-.085z" fill="#f3eff0"/><path d="m305.62 200.279 46.601 70.809c6.463-6.007 16.072-5.582 22.081 1.332l62.985 72.169c17.631-3.57 36.084-9.322 55.983-17.823l-113.242-172.05c-12.217-18.559-32.201-18.559-44.446 0z" fill="#dad0d3"/><path d="m295.698 335.72c50.144 11.759 92.719 18.701 141.588 8.869l-62.985-72.169c-6.009-6.914-15.619-7.339-22.081-1.332-.454.425-.879.85-1.276 1.332z" fill="#dad0d3"/><path d="m29.644 340.565c30.5-18.361 94.307-44.288 180.79-25.218 31.691 6.97 59.47 14.309 85.265 20.373l55.246-63.3c.397-.482.822-.907 1.276-1.332l-46.601-70.809-16.157-24.538c-2.579 1.728-25.936 18.078-52.638-.085 0 0-9.212-7.707-23.045-8.217-13.804.51-23.017 8.217-23.017 8.217-26.702 18.163-50.087 1.813-52.638.085l-8.504 12.921z" fill="#dad0d3"/><path d="m108.899 388.565c66.386 0 126.366 27.457 169.168 71.631 36.141-34.824 85.293-56.217 139.462-56.217 28.006 0 54.679 5.724 78.915 16.066v-94.639c-1.077.482-2.126.935-3.175 1.36-19.899 8.5-38.352 14.253-55.983 17.823-48.868 9.832-91.444 2.89-141.588-8.869-25.795-6.064-53.574-13.402-85.265-20.373-86.483-19.069-150.29 6.857-180.79 25.218-11.338 6.829-18.084 12.609-19.643 14.65v55.055c30.075-13.913 63.58-21.705 98.899-21.705z" fill="#d0f2d2"/><path d="m10 494h239.863c8.164-12.269 17.631-23.603 28.204-33.804-42.802-44.174-102.782-71.631-169.168-71.631-35.319 0-68.824 7.792-98.899 21.705z" fill="#a0e5a5"/><path d="m249.863 494h246.581v-73.954c-24.236-10.342-50.909-16.066-78.915-16.066-54.169 0-103.321 21.393-139.462 56.217-10.573 10.199-20.04 21.533-28.204 33.803z" fill="#a0e5a5"/></g><path d="m507.404 314.499c-2.862-1.84-6.466-2.097-9.563-.681-.291.133-.577.259-.867.39l-108.594-164.991c-7.702-11.7-18.837-18.415-30.549-18.421-.006 0-.011 0-.017 0-11.714 0-22.859 6.71-30.589 18.425l-21.611 32.864-6.842-10.396c-.215-.495-.461-.983-.764-1.452-.343-.532-.732-1.014-1.151-1.458l-46.777-71.073c-7.517-11.425-17.717-18.865-28.75-21.212-11.752-40.095-49.11-68.494-91.512-68.494-52.576 0-95.35 42.759-95.35 95.317 0 46.489 33.532 85.371 77.681 93.694l-89.683 136.27c-11.384 7.086-18.356 13.192-20.389 15.833-1.347 1.748-2.077 3.893-2.077 6.1v138.786c0 5.523 4.478 10 10 10h239.841c.005 0 .009.001.014.001s.011-.001.016-.001h252.129c5.522 0 10-4.477 10-10v-171.087c0-3.404-1.731-6.575-4.596-8.414zm-163.476-154.276c4.012-6.079 8.942-9.427 13.887-9.427h.006c4.938.003 9.858 3.347 13.854 9.417l106.545 161.878c-12.989 4.999-25.338 8.768-37.275 11.483l-59.098-67.716c-4.946-5.688-11.94-8.955-19.188-8.963-.009 0-.018 0-.026 0-2.412 0-4.794.369-7.086 1.06l-37.959-57.676zm14.548 118.775c1.202-1.376 2.64-2.104 4.158-2.104h.005c1.508.001 2.932.723 4.129 2.1l51.15 58.61c-34.825 4.275-67.256-.027-103.664-7.937zm-125.102-170.297 41.641 63.271c-8.053 2.909-19.635 4.066-32.257-4.375-2.555-2.004-13.19-9.582-28.611-10.15-.247-.009-.492-.009-.737 0-15.394.568-26.026 8.146-28.581 10.15-12.621 8.439-24.203 7.283-32.256 4.375l41.64-63.271c5.52-8.389 12.474-13.008 19.581-13.008s14.06 4.619 19.58 13.008zm-178.905-5.385c0-41.53 33.802-75.317 75.35-75.317 32.077 0 60.505 20.549 71.023 50.081-8.929 3.343-17.067 10.096-23.337 19.625l-53.135 80.737c-38.998-2.812-69.901-35.455-69.901-75.126zm83.403 90.99c.027-.04.052-.08.079-.12l3.446-5.237c12.011 5.406 32.677 10.153 54.989-5.026.273-.186.538-.386.792-.598.064-.055 6.86-5.392 16.601-5.878 9.813.488 16.627 5.878 16.628 5.878.298.259.466.376.792.598 11.232 7.641 22.049 10.233 31.554 10.232 9.38 0 17.468-2.525 23.433-5.211l11.111 16.882c.004.007.009.013.013.02l42.33 64.317-47.502 54.427c-7.756-1.854-15.726-3.815-23.966-5.844-17.528-4.314-35.654-8.776-55.585-13.166-65.073-14.345-117.998-4.174-154.587 10.089zm-117.872 222.458c26.14-11.231 53.903-17.326 82.626-18.118 5.521-.152 9.873-4.751 9.721-10.271-.149-5.427-4.596-9.725-9.991-9.725-.093 0-.187.001-.28.004-28.397.782-55.932 6.343-82.076 16.516v-35.744c6.117-5.145 24.033-17.862 52.602-27.822 29.182-10.174 76.41-19.558 135.682-6.49 19.693 4.337 37.697 8.769 55.108 13.054 10.246 2.522 20.155 4.961 29.82 7.23.167.043.333.083.502.117 50.615 11.864 94.543 19.024 144.983 8.966.439-.062.875-.149 1.305-.27 16.477-3.375 33.656-8.584 51.998-16.073v69.35c-23.715-8.96-48.694-13.509-74.471-13.509-51.972 0-101.175 18.989-139.225 52.41-23.839-22.692-52.329-40.655-82.969-52.193-5.174-1.946-10.938.666-12.883 5.834-1.946 5.168.666 10.936 5.834 12.882 27.888 10.502 53.84 26.802 75.622 47.384-6.94 7.37-13.401 15.277-19.308 23.703h-224.6zm249.683 67.236c4.709-5.751 9.711-11.202 14.994-16.315.117-.103.239-.199.352-.309.07-.068.13-.143.198-.213 35.219-33.82 82.355-53.184 132.302-53.184 25.916 0 50.934 5.066 74.471 15.046v54.975z"/><path d="m152.403 382.822c-4.939-2.47-10.946-.467-13.416 4.472-2.47 4.94-.468 10.947 4.473 13.417l.057.028c1.432.716 2.951 1.055 4.447 1.055 3.663 0 7.187-2.034 8.94-5.542 2.47-4.939.44-10.96-4.501-13.43z"/></svg>