<?xml version="1.0" encoding="iso-8859-1"?>
<!-- Generator: Adobe Illustrator 19.0.0, SVG Export Plug-In . SVG Version: 6.00 Build 0)  -->
<svg version="1.1" id="Capa_1" xmlns="http://www.w3.org/2000/svg" xmlns:xlink="http://www.w3.org/1999/xlink" x="0px" y="0px"
	 viewBox="0 0 512 512" style="enable-background:new 0 0 512 512;" xml:space="preserve">
<g>
	<g>
		<path d="M511.99,206c0.002-2.034-0.605-4.088-1.889-5.862c-0.641-0.885-1.403-1.629-2.242-2.236
			c0.001-0.001,0.002-0.002,0.003-0.003l-88.267-63.868c-0.51-0.369-1.046-0.676-1.596-0.937V38c0-20.953-17.047-38-38-38H132
			c-20.953,0-38,17.047-38,38v95.094c-0.55,0.26-1.085,0.567-1.596,0.936L4.138,197.898c0.001,0.001,0.002,0.002,0.002,0.003
			c-0.839,0.607-1.601,1.351-2.242,2.236c-1.284,1.775-1.891,3.829-1.889,5.864c-0.003,0-0.006,0-0.009-0.001v296
			c0,5.523,4.477,10,10,10h492c0.146,0,0.277-0.008,0.399-0.02c5.336-0.211,9.601-4.592,9.601-9.98V206
			C511.997,206,511.994,206,511.99,206z M418,157.563L484.941,206L418,254.437V157.563z M114,38c0-9.925,8.075-18,18-18h248
			c9.925,0,18,8.075,18,18v16H187.5c-5.523,0-10,4.477-10,10s4.477,10,10,10H398v194.909l-100.539,72.748l-35.599-25.758
			c-3.499-2.531-8.226-2.531-11.725,0l-35.598,25.758L114,268.909V38z M94,157.563v96.874L27.059,206L94,157.563z M20,225.579
			L197.48,354L20,482.421V225.579z M40.879,492L256,336.343L341.211,398h-46.384c-5.523,0-10,4.477-10,10s4.477,10,10,10h73.923
			c0.032,0,0.063-0.004,0.095-0.005L396.492,438H249.667c-5.523,0-10,4.477-10,10s4.477,10,10,10h174.466l46.989,34H40.879z
			 M492,482.421L314.52,354L492,225.579V482.421z"/>
	</g>
</g>
<g>
	<g>
		<path d="M214.07,440.93c-1.86-1.86-4.44-2.93-7.07-2.93s-5.21,1.07-7.07,2.93S197,445.37,197,448s1.07,5.21,2.93,7.07
			c1.86,1.86,4.44,2.93,7.07,2.93s5.21-1.07,7.07-2.93S217,450.63,217,448S215.93,442.79,214.07,440.93z"/>
	</g>
</g>
<g>
	<g>
		<path d="M146.512,54c-5.523,0-10,4.477-10,10s4.477,10,10,10h0.088c5.523,0,9.956-4.477,9.956-10S152.035,54,146.512,54z"/>
	</g>
</g>
<g>
	<g>
		<path d="M255.973,93.057c-41.904,0-75.995,34.091-75.995,75.995v1.01c0.001,41.904,34.092,75.995,75.996,75.995H304.5
			c5.523,0,10-4.477,10-10s-4.477-10-10-10h-48.526c-30.876,0-55.995-25.119-55.995-55.995v-1.01
			c0-30.876,25.119-55.995,55.995-55.995c30.875,0,55.995,25.119,55.995,55.995v16.021c0,4.954-4.03,8.984-8.984,8.984
			c-4.954,0-8.984-4.03-8.984-8.984v-18.096c0-22.607-18.393-41-41-41c-23.71,0-43,19.29-43,43c0,23.71,19.29,43,43,43h12.437
			c5.523,0,10-4.477,10-10c0-5.523-4.477-10-10-10H253c-12.682,0-23-10.318-23-23s10.318-23,23-23c11.58,0,21,9.42,21,21v18.096
			c0,15.982,13.002,28.984,28.984,28.984s28.984-13.002,28.984-28.984v-16.021C331.968,127.148,297.877,93.057,255.973,93.057z"/>
	</g>
</g>
<g>
	<g>
		<path d="M321.969,266h-131.99c-5.523,0-10,4.477-10,10s4.477,10,10,10h131.99c5.523,0,10-4.477,10-10S327.492,266,321.969,266z"/>
	</g>
</g>
<g>
</g>
<g>
</g>
<g>
</g>
<g>
</g>
<g>
</g>
<g>
</g>
<g>
</g>
<g>
</g>
<g>
</g>
<g>
</g>
<g>
</g>
<g>
</g>
<g>
</g>
<g>
</g>
<g>
</g>
</svg>
