<svg id="Capa_1" enable-background="new 0 0 512 512" height="512" viewBox="0 0 512 512" width="512" xmlns="http://www.w3.org/2000/svg"><g><g><g><path d="m190.984 490.801c-.363 0-.746-.002-1.122-.003-.376.001-.759.003-1.122.003z" fill="#88d37f"/></g></g><g><path d="m258.878 42.689c-4.229.301-8.429-1.229-11.248-4.396-9.337-10.487-22.938-17.093-38.083-17.093-15.146 0-28.746 6.607-38.083 17.094-2.82 3.167-7.019 4.697-11.248 4.396-20.996-1.494-39.729 15.164-39.729 37.097 0 26.698 26.878 43.721 50.258 34.819 3.987-1.518 8.468-1.226 12.101 1.012 7.766 4.784 16.911 7.545 26.702 7.545s18.936-2.76 26.702-7.545c3.633-2.238 8.114-2.53 12.101-1.012 23.369 8.896 50.258-8.098 50.258-34.819-.002-21.936-18.737-38.592-39.731-37.098z" fill="#fbf1cf"/><path d="m156.808 385.797c-38.614 0-149.308-7.527-149.308-37.634 0-99.218 88.997-265.494 149.308-265.494 60.312 0 149.309 166.276 149.309 265.494 0 30.107-110.694 37.634-149.309 37.634z" fill="#cde9fa"/><path d="m128.187 93.069c-56.343 37.885-120.687 170.729-120.687 255.093 0 30.107 110.694 37.634 149.308 37.634 7.688 0 18.238-.3 30.198-1.015-106.946-34.963-95.109-216.872-58.819-291.712z" fill="#a2ddfd"/><path d="m156.808 162.037c-39.751 0-51.327-8.567-79.96-12.471-38.051 57.342-69.348 139.759-69.348 198.596 0 30.107 110.694 37.634 149.308 37.634s149.309-7.527 149.309-37.634c0-58.837-31.297-141.254-69.349-198.596-28.633 3.904-40.208 12.471-79.96 12.471z" fill="#88d37f"/><path d="m108.601 156.303c-9.851-2.397-19.149-5.018-31.752-6.736-38.052 57.341-69.349 139.758-69.349 198.595 0 30.107 110.694 37.634 149.308 37.634 7.688 0 18.238-.3 30.198-1.015-83.094-27.165-94.482-143.037-78.405-228.478z" fill="#5ec682"/><path d="m355.191 462.229c-38.614 0-149.309-8.091-149.309-40.453 0-106.649 88.997-285.378 149.309-285.378s149.309 178.729 149.309 285.378c0 32.362-110.694 40.453-149.309 40.453z" fill="#cde9fa"/><path d="m445.171 453.976c-122.333-36.835-150.486-232.51-118.483-306.486-56.371 40.608-120.806 183.539-120.806 274.286 0 32.362 110.694 40.453 149.309 40.453 19.476 0 57.283-2.061 89.98-8.253z" fill="#a2ddfd"/><path d="m355.191 236.32c-35.137 0-50.522-11.747-86.436-17.15-35.063 60.853-62.873 142.989-62.873 202.605 0 32.362 110.694 40.453 149.309 40.453s149.309-8.09 149.309-40.452c0-59.616-27.81-141.752-62.873-202.605-35.914 5.403-51.298 17.149-86.436 17.149z" fill="#88d37f"/><path d="m445.172 453.976c-88.642-26.69-127.836-136.777-130.525-223.537-13.529-3.738-26.814-8.398-45.891-11.268-35.063 60.853-62.873 142.989-62.873 202.605 0 32.362 110.694 40.453 149.309 40.453 19.475 0 57.283-2.061 89.98-8.253z" fill="#5ec682"/><path d="m361.239 295.86c-4.23.301-8.429-1.229-11.249-4.396-9.337-10.487-22.938-17.093-38.083-17.093-15.146 0-28.746 6.607-38.083 17.093-2.82 3.167-7.019 4.697-11.248 4.396-20.997-1.494-39.729 15.164-39.729 37.097 0 26.698 26.878 43.721 50.259 34.819 3.987-1.518 8.468-1.226 12.1 1.012 7.766 4.784 16.911 7.545 26.702 7.545s18.936-2.76 26.702-7.545c3.633-2.238 8.114-2.53 12.101-1.012 23.369 8.896 50.258-8.098 50.258-34.819-.001-21.935-18.736-38.591-39.73-37.097z" fill="#fbf1cf"/><path d="m189.862 490.801c-39.276 0-151.869-6.887-151.869-34.433 0-90.777 90.523-242.907 151.869-242.907s151.869 152.13 151.869 242.907c0 27.546-112.592 34.433-151.869 34.433z" fill="#cde9fa"/><path d="m341.731 456.368c0-40.331-17.875-92.766-43.114-138.596-34.479-9.182-70.935 9.64-108.755 9.64s-74.276-18.822-108.755-9.64c-25.239 45.83-43.114 98.265-43.114 138.596 0 27.546 112.592 34.433 151.869 34.433s151.869-6.887 151.869-34.433z" fill="#88d37f"/><g><g fill="#fff"><ellipse cx="115.484" cy="410.133" rx="27.03" ry="21.525"/><ellipse cx="261.997" cy="410.133" rx="27.03" ry="21.525"/></g></g><path d="m188.74 389.566c-5.955 0-10.783 5.149-10.783 11.5s4.828 11.5 10.783 11.5 10.783-5.149 10.783-11.5-4.827-11.5-10.783-11.5zm76.376-13.192c-3.123-2.721-7.86-2.396-10.581.728-2.093 2.403-5.116 3.781-8.292 3.781s-6.198-1.378-8.292-3.781c-2.721-3.123-7.459-3.448-10.582-.727s-3.448 7.458-.727 10.582c4.943 5.673 12.087 8.927 19.601 8.927s14.658-3.254 19.601-8.927c2.721-3.125 2.395-7.862-.728-10.583zm90.075-247.476c-32.73 0-64.695 41.726-82.407 69.228-11.723-24.315-26.47-49.688-42.877-71.114 3.56-1.323 6.995-2.988 10.275-5.009 1.56-.96 3.616-1.105 5.5-.389 28.212 10.739 60.426-9.773 60.426-41.828 0-26.741-22.89-46.352-47.762-44.578-2.012.143-3.926-.568-5.115-1.902-11.094-12.46-27.016-19.606-43.685-19.606s-32.591 7.146-43.686 19.606c-1.188 1.333-3.097 2.047-5.114 1.902-30.855-2.211-55.449 27.618-45.639 58.279-25.104 20.672-47.461 54.254-63.007 82.683-1.987 3.634-.652 8.191 2.982 10.179 3.633 1.986 8.191.652 10.179-2.982 4.974-9.096 10.077-17.667 15.241-25.66 24.662 4.051 37.935 11.832 76.306 11.832 38.323 0 51.736-7.794 76.295-11.83 10.642 16.453 20.953 35.273 30.305 55.724-4.277 7.336-8.911 15.818-13.477 24.842-15.914-15.738-37.681-32.313-60.07-32.313-16.613 0-35.009 9.138-54.677 27.159-36.024 33.008-67.608 87.69-85.254 133.808-25.601-6.341-34.93-13.73-34.93-18.767 0-36.36 12.633-85.032 34.661-133.535 1.713-3.771.044-8.217-3.727-9.93-3.77-1.712-8.216-.044-9.93 3.728-22.881 50.381-36.004 101.314-36.004 139.737 0 14.429 14.692 25.24 44.82 32.945-9.219 27.35-14.327 53.411-14.327 75.261 0 16.648 21.464 27.756 67.548 34.956 35.248 5.507 74.302 6.977 91.821 6.977s56.573-1.469 91.821-6.977c32.665-5.103 52.946-12.173 61.996-21.785 26.35.792 58.548-1.577 83.349-5.016 4.103-.568 6.968-4.355 6.398-8.458-.568-4.103-4.349-6.964-8.459-6.399-23.008 3.19-53.096 5.419-75.761 5.003-.259-21.964-5.546-48.016-14.895-75.295 2.846-1.18 5.6-2.579 8.232-4.201 1.558-.961 3.615-1.105 5.499-.388 28.211 10.739 60.425-9.774 60.425-41.829 0-26.74-22.89-46.352-47.762-44.578-2.012.142-3.927-.568-5.114-1.902-18.721-21.027-50.048-25.937-74.453-10.839-6.633-9.36-13.421-17.997-20.251-25.744 3.858-7.826 7.809-15.333 11.822-22.478 32.016 5.652 47.687 16.404 82.482 16.404 34.683 0 50.816-10.815 82.486-16.405 30.498 54.358 59.323 133.352 59.323 194.362 0 7.492-14.142 15.52-37.83 21.477-4.017 1.01-6.454 5.086-5.444 9.103 1.007 4.004 5.07 6.457 9.103 5.444 33.088-8.32 49.172-20.103 49.172-36.023-.001-105.965-88.725-292.879-156.81-292.879zm-195.509-78.729c6.624.477 13.122-2.104 17.382-6.89 17.241-19.365 47.603-19.498 64.963 0 4.261 4.786 10.764 7.362 17.382 6.89 16.515-1.17 31.697 11.889 31.697 29.616 0 21.397-21.564 34.863-40.09 27.809-6.21-2.363-13.202-1.751-18.703 1.637-3.935 2.424-8.166 4.171-12.614 5.232-22.342-25.722-44.041-39.295-62.891-39.295-9.028 0-18.56 2.997-28.513 8.934-2.753-19.564 13.307-35.206 31.387-33.933zm-2.873 104.369c-32.999 0-45.485-6.042-67.088-10.393 24.144-33.703 48.74-53.976 67.088-53.976 18.546 0 43.177 20.663 67.067 53.98-21.614 4.356-34.068 10.389-67.067 10.389zm176.693 303.79c-3.085 4.594-16.769 12.338-54.133 18.176-34.34 5.365-72.419 6.797-89.506 6.797s-55.165-1.432-89.505-6.797c-43.397-6.78-54.864-16.136-54.864-20.136 0-42.484 20.051-94.234 40.56-132.058 31.417-6.723 66.383 10.602 103.809 10.602 37.462 0 72.371-17.331 103.809-10.603 20.3 37.441 40.56 89.36 40.56 132.059-.001.879-.542 1.613-.73 1.96zm10.888-161.876c4.261 4.786 10.752 7.363 17.382 6.889 16.476-1.173 31.696 11.854 31.696 29.616 0 21.402-21.563 34.861-40.089 27.81-6.212-2.365-13.203-1.753-18.704 1.636-1.768 1.09-3.611 2.044-5.512 2.866-10.552-27.206-24.364-53.791-39.587-77.207 18.035-10.799 40.993-7.132 54.814 8.39zm-60.073 11.501c-31.607-1.95-62.964 11.96-94.454 11.96-31.445 0-62.918-13.904-94.455-11.959.634-1.053 1.264-2.109 1.908-3.158 31.729-51.711 67.191-83.835 92.547-83.835 39.729 0 83.663 69.052 94.454 86.992zm70.874-79.133c-30.248 0-44.958-9.144-74.424-15.139 26.35-42.967 54.26-69.784 74.424-69.784 20.113 0 47.973 26.593 74.433 69.782-29.49 6-44.176 15.141-74.433 15.141zm-205.08 147.555c-3.124-2.721-7.86-2.397-10.581.727-2.094 2.403-5.117 3.781-8.292 3.781-3.176 0-6.198-1.378-8.292-3.781-2.721-3.123-7.459-3.448-10.581-.727-3.123 2.721-3.448 7.458-.727 10.582 4.943 5.673 12.087 8.927 19.601 8.927 7.513 0 14.658-3.254 19.601-8.927 2.719-3.124 2.394-7.861-.729-10.582z"/></g></g></svg>