<?xml version="1.0" encoding="iso-8859-1"?>
<!-- Generator: Adobe Illustrator 19.0.0, SVG Export Plug-In . SVG Version: 6.00 Build 0)  -->
<svg version="1.1" id="Layer_1" xmlns="http://www.w3.org/2000/svg" xmlns:xlink="http://www.w3.org/1999/xlink" x="0px" y="0px"
	 viewBox="0 0 512 512" style="enable-background:new 0 0 512 512;" xml:space="preserve">
<rect x="365.131" y="184.606" style="fill:#C69C6D;" width="67.315" height="38.757"/>
<rect x="365.131" y="144.829" style="fill:#F15A24;" width="67.315" height="39.777"/>
<rect x="365.131" y="107.092" style="fill:#C69C6D;" width="67.315" height="37.737"/>
<rect x="241.721" y="184.606" style="fill:#F15A24;" width="67.315" height="38.757"/>
<rect x="241.721" y="144.829" style="fill:#C69C6D;" width="67.315" height="39.777"/>
<g>
	<rect x="241.721" y="107.092" style="fill:#F15A24;" width="67.315" height="37.737"/>
	<path style="fill:#F15A24;" d="M289.657,64.765c0-26.193,21.234-47.426,47.426-47.426s47.426,21.234,47.426,47.426H289.657z"/>
</g>
<path d="M501.801,295.777H10.199C4.566,295.777,0,300.343,0,305.976s4.566,10.199,10.199,10.199h491.602
	c5.633,0,10.199-4.566,10.199-10.199S507.434,295.777,501.801,295.777z"/>
<path d="M347.793,335.554H170.86c-5.633,0-10.199,4.566-10.199,10.199s4.566,10.199,10.199,10.199h176.933
	c5.633,0,10.199-4.566,10.199-10.199S353.426,335.554,347.793,335.554z"/>
<path d="M133.61,355.952c5.633,0,10.199-4.566,10.199-10.199s-4.566-10.199-10.199-10.199h-11.719
	c-5.633,0-10.199,4.566-10.199,10.199s4.566,10.199,10.199,10.199H133.61z"/>
<path d="M95.568,345.753c0-5.633-4.566-10.199-10.199-10.199H52.016c-5.633,0-10.199,4.566-10.199,10.199
	s4.566,10.199,10.199,10.199h33.352C91.001,355.952,95.568,351.386,95.568,345.753z"/>
<path d="M351.873,391.649c0,5.633,4.566,10.199,10.199,10.199h11.719c5.633,0,10.199-4.566,10.199-10.199
	s-4.566-10.199-10.199-10.199h-11.719C356.439,381.45,351.873,386.016,351.873,391.649z"/>
<path d="M443.665,381.45h-33.352c-5.633,0-10.199,4.566-10.199,10.199s4.566,10.199,10.199,10.199h33.352
	c5.633,0,10.199-4.566,10.199-10.199S449.298,381.45,443.665,381.45z"/>
<path d="M173.386,425.307c-15.747,0-28.558,12.811-28.558,28.558c0,4.499-3.66,8.159-8.159,8.159s-8.159-3.66-8.159-8.159
	c0-15.747-12.811-28.558-28.558-28.558s-28.558,12.811-28.558,28.558c0,5.633,4.566,10.199,10.199,10.199
	s10.199-4.566,10.199-10.199c0-4.499,3.66-8.159,8.159-8.159s8.159,3.66,8.159,8.159c0,15.747,12.811,28.558,28.558,28.558
	s28.558-12.811,28.558-28.558c0-4.499,3.66-8.159,8.159-8.159s8.159,3.66,8.159,8.159c0,5.633,4.566,10.199,10.199,10.199
	s10.199-4.566,10.199-10.199C201.944,438.118,189.133,425.307,173.386,425.307z"/>
<path d="M438.566,466.104c-5.633,0-10.199,4.566-10.199,10.199c0,4.499-3.66,8.159-8.159,8.159s-8.159-3.66-8.159-8.159
	c0-15.747-12.811-28.558-28.558-28.558s-28.558,12.811-28.558,28.558c0,4.499-3.66,8.159-8.159,8.159s-8.159-3.66-8.159-8.159
	c0-5.633-4.566-10.199-10.199-10.199c-5.633,0-10.199,4.566-10.199,10.199c0,15.747,12.811,28.558,28.558,28.558
	s28.558-12.811,28.558-28.558c0-4.499,3.66-8.159,8.159-8.159s8.159,3.66,8.159,8.159c0,15.747,12.811,28.558,28.558,28.558
	s28.558-12.811,28.558-28.558C448.765,470.67,444.199,466.104,438.566,466.104z"/>
<path d="M403.888,256c-5.633,0-10.199,4.566-10.199,10.199s4.566,10.199,10.199,10.199h17.849c5.633,0,10.199-4.566,10.199-10.199
	S427.37,256,421.737,256H403.888z"/>
<path d="M90.263,276.398h270.789c5.633,0,10.199-4.566,10.199-10.199S366.685,256,361.052,256H90.263
	c-5.633,0-10.199,4.566-10.199,10.199S84.63,276.398,90.263,276.398z"/>
<path d="M442.645,107.092c0-5.633-4.566-10.199-10.199-10.199h-67.315c-5.633,0-10.199,4.566-10.199,10.199v116.271
	c0,5.633,4.566,10.199,10.199,10.199h67.315c5.633,0,10.199-4.566,10.199-10.199V107.092z M422.247,174.406h-46.916v-19.378h46.916
	V174.406z M422.247,213.163h-46.916v-18.359h46.916V213.163z M375.331,117.291h46.916v17.339h-46.916V117.291z"/>
<path d="M319.235,107.092c0-5.633-4.566-10.199-10.199-10.199h-67.315c-5.633,0-10.199,4.566-10.199,10.199v116.271
	c0,5.633,4.566,10.199,10.199,10.199h67.315c5.633,0,10.199-4.566,10.199-10.199V107.092z M298.837,174.406H251.92v-19.378h46.916
	V174.406z M298.837,213.163H251.92v-18.359h46.916V213.163z M251.92,117.291h46.916v17.339H251.92V117.291z"/>
<path d="M289.657,74.964h37.227v57.626c0,5.633,4.566,10.199,10.199,10.199s10.199-4.566,10.199-10.199V74.964h37.227
	c5.633,0,10.199-4.566,10.199-10.199c0-31.775-25.851-57.625-57.625-57.625s-57.625,25.851-57.625,57.625
	C279.458,70.398,284.024,74.964,289.657,74.964z M337.084,27.538c16.992,0,31.362,11.444,35.806,27.028h-71.614
	C305.722,38.981,320.092,27.538,337.084,27.538z"/>
<g>
</g>
<g>
</g>
<g>
</g>
<g>
</g>
<g>
</g>
<g>
</g>
<g>
</g>
<g>
</g>
<g>
</g>
<g>
</g>
<g>
</g>
<g>
</g>
<g>
</g>
<g>
</g>
<g>
</g>
</svg>
