<?xml version="1.0" encoding="iso-8859-1"?>
<!-- Generator: Adobe Illustrator 19.0.0, SVG Export Plug-In . SVG Version: 6.00 Build 0)  -->
<svg version="1.1" id="Layer_1" xmlns="http://www.w3.org/2000/svg" xmlns:xlink="http://www.w3.org/1999/xlink" x="0px" y="0px"
	 viewBox="0 0 512 512" style="enable-background:new 0 0 512 512;" xml:space="preserve">
<path style="fill:#29ABE2;" d="M172.876,213.036c13.238,0,23.968-10.731,23.968-23.968c0-12.44-9.478-22.665-21.606-23.851
	c0.119-1.043,0.188-2.102,0.188-3.177c0-15.209-12.329-27.538-27.538-27.538c-6.863,0-13.134,2.516-17.956,6.669
	c-5.035-6.535-12.934-10.749-21.821-10.749c-15.209,0-27.538,12.329-27.538,27.538c0,0.102,0.006,0.202,0.008,0.304
	c-1.334-0.199-2.699-0.304-4.088-0.304c-15.209,0-27.538,12.329-27.538,27.538s12.329,27.538,27.538,27.538H172.876z"/>
<path style="fill:#FBB03B;" d="M399.192,185.302c4.822-4.153,11.093-6.669,17.956-6.669c15.209,0,27.538,12.329,27.538,27.538
	c0,1.075-0.068,2.134-0.188,3.177c4.757,0.465,9.094,2.336,12.624,5.17c9.248-8.041,15.102-19.882,15.102-33.099
	c0-24.221-19.636-43.857-43.857-43.857c-22.25,0-40.617,16.574-43.462,38.046C390.653,177.242,395.637,180.689,399.192,185.302z"/>
<g>
	<path style="fill:#29ABE2;" d="M457.12,214.518c-3.53-2.834-7.867-4.705-12.624-5.17c0.119-1.043,0.188-2.102,0.188-3.177
		c0-15.209-12.329-27.538-27.538-27.538c-6.863,0-13.134,2.516-17.956,6.669c-3.554-4.612-8.539-8.059-14.287-9.694
		c-2.396-0.681-4.92-1.055-7.534-1.055c-15.209,0-27.538,12.329-27.538,27.538c0,0.102,0.006,0.202,0.008,0.304
		c-1.334-0.199-2.699-0.304-4.088-0.304c-15.209,0-27.538,12.329-27.538,27.538c0,15.209,12.329,27.538,27.538,27.538h96.382
		c13.238,0,23.968-10.731,23.968-23.968C466.104,225.638,462.59,218.911,457.12,214.518z"/>
	<path style="fill:#29ABE2;" d="M250.587,133.011c-9.403,0-17.026-7.623-17.026-17.026c0-8.837,6.732-16.099,15.348-16.943
		c-0.085-0.74-0.134-1.493-0.134-2.257c0-10.803,8.758-19.561,19.561-19.561c4.875,0,9.329,1.787,12.755,4.738
		c3.577-4.642,9.187-7.635,15.501-7.635c10.803,0,19.561,8.758,19.561,19.561c0,0.072-0.005,0.144-0.005,0.216
		c0.947-0.141,1.916-0.216,2.904-0.216c10.803,0,19.561,8.758,19.561,19.561s-8.758,19.561-19.561,19.561h-68.465V133.011z"/>
</g>
<path d="M501.801,286.47H64.255c-5.632,0-10.199,4.566-10.199,10.199s4.567,10.199,10.199,10.199h437.546
	c5.632,0,10.199-4.566,10.199-10.199S507.433,286.47,501.801,286.47z"/>
<path d="M26.518,286.47H10.199C4.567,286.47,0,291.036,0,296.669s4.567,10.199,10.199,10.199h16.319
	c5.632,0,10.199-4.566,10.199-10.199S32.15,286.47,26.518,286.47z"/>
<path d="M238.661,246.693c-5.632,0-10.199,4.566-10.199,10.199c0,5.633,4.567,10.199,10.199,10.199h15.299
	c5.632,0,10.199-4.566,10.199-10.199c0-5.633-4.567-10.199-10.199-10.199H238.661z"/>
<path d="M125.45,246.693c-5.632,0-10.199,4.566-10.199,10.199c0,5.633,4.567,10.199,10.199,10.199h75.474
	c5.632,0,10.199-4.566,10.199-10.199c0-5.633-4.567-10.199-10.199-10.199H125.45z"/>
<path d="M172.876,223.235c18.84,0,34.167-15.327,34.167-34.167c0-14.457-8.873-26.874-21.725-31.849
	c-2.374-18.54-18.255-32.916-37.43-32.916c-5.796,0-11.472,1.338-16.606,3.855c-6.544-5.116-14.622-7.935-23.171-7.935
	c-17.386,0-32.063,11.818-36.421,27.842c-18.548,2.367-32.933,18.251-32.933,37.433c0,20.808,16.929,37.737,37.737,37.737H172.876z
	 M59.155,185.498c0-9.561,7.778-17.339,17.339-17.339c0.856,0,1.726,0.064,2.59,0.193c2.968,0.442,5.981-0.449,8.235-2.43
	c2.253-1.983,3.519-4.857,3.461-7.858l-0.006-0.196c0.051-9.518,7.809-17.246,17.339-17.246c5.416,0,10.425,2.469,13.742,6.774
	c1.709,2.218,4.256,3.637,7.043,3.922c2.797,0.284,5.569-0.592,7.69-2.417c3.145-2.708,7.159-4.199,11.302-4.199
	c9.561,0,17.339,7.778,17.339,17.339c0,0.637-0.041,1.313-0.12,2.006c-0.315,2.718,0.477,5.447,2.195,7.577
	c1.718,2.13,4.22,3.479,6.944,3.745c7.07,0.691,12.4,6.582,12.4,13.701c0,7.592-6.177,13.769-13.769,13.769H76.494
	C66.933,202.837,59.155,195.059,59.155,185.498z"/>
<path d="M340.949,192.196c-18.549,2.366-32.933,18.251-32.933,37.433c0,20.808,16.929,37.737,37.737,37.737h96.382
	c18.84,0,34.167-15.327,34.167-34.167c0-6.807-1.986-13.148-5.409-18.486c7.211-9.183,11.528-20.738,11.528-33.294
	c0-29.806-24.249-54.056-54.056-54.056c-23.846,0-44.113,15.528-51.271,36.998C359.83,164.485,345.285,176.257,340.949,192.196z
	 M428.367,147.761c18.558,0,33.657,15.099,33.657,33.657c0,7.585-2.53,14.585-6.781,20.218c-0.223-0.092-0.439-0.199-0.664-0.287
	c-2.374-18.54-18.255-32.916-37.43-32.916c-5.796,0-11.473,1.338-16.606,3.855c-1.19-0.931-2.434-1.784-3.72-2.559
	C401.58,156.919,413.917,147.761,428.367,147.761z M360.038,202.195l-0.006-0.198c0.051-9.517,7.81-17.245,17.339-17.245
	c5.416,0,10.425,2.469,13.742,6.774c1.709,2.219,4.257,3.637,7.043,3.922c2.796,0.286,5.568-0.591,7.691-2.418
	c3.143-2.707,7.158-4.198,11.301-4.198c9.561,0,17.339,7.778,17.339,17.339c0,0.646-0.04,1.302-0.12,2.006
	c-0.315,2.718,0.477,5.447,2.195,7.577c1.72,2.129,4.22,3.478,6.944,3.744c7.07,0.691,12.4,6.582,12.4,13.701
	c0,7.592-6.177,13.769-13.769,13.769h-96.382c-9.561,0-17.339-7.778-17.339-17.339c0-9.561,7.778-17.339,17.339-17.339
	c0.858,0,1.727,0.064,2.586,0.193c2.972,0.44,5.984-0.447,8.237-2.429C358.83,208.072,360.096,205.197,360.038,202.195z"/>
<path d="M250.587,143.21h68.464c16.411,0,29.761-13.351,29.761-29.761c0-14.462-10.371-26.55-24.066-29.214
	c-4.017-11.686-15.121-20.108-28.154-20.108c-6.12,0-11.934,1.832-16.814,5.187c-3.598-1.499-7.485-2.29-11.44-2.29
	c-14.53,0-26.662,10.465-29.251,24.256c-9.377,4.335-15.724,13.789-15.724,24.705C223.363,130.997,235.576,143.21,250.587,143.21z
	 M249.902,109.194c2.72-0.266,5.221-1.614,6.94-3.74c1.719-2.127,2.511-4.853,2.201-7.569c-0.046-0.398-0.067-0.758-0.067-1.099
	c0-5.163,4.2-9.362,9.363-9.362c2.867,0,4.9,1.232,6.099,2.266c2.122,1.828,4.901,2.704,7.69,2.418
	c2.786-0.285,5.333-1.702,7.044-3.921c1.793-2.326,4.498-3.662,7.421-3.662c5.125,0,9.302,4.139,9.362,9.25
	c-0.002,0.07-0.003,0.143-0.004,0.189c-0.041,2.991,1.233,5.85,3.486,7.82c2.253,1.969,5.253,2.848,8.217,2.408
	c0.465-0.069,0.935-0.105,1.398-0.105c5.163,0,9.363,4.2,9.363,9.362c0,5.162-4.2,9.363-9.363,9.363h-68.464
	c-3.764,0-6.826-3.062-6.826-6.826C243.761,112.455,246.402,109.535,249.902,109.194z"/>
<path d="M67.546,414.749c-5.471-1.31-10.98,2.072-12.288,7.552c-1.136,4.76-1.712,9.674-1.712,14.607
	c0,5.633,4.567,10.199,10.199,10.199s10.199-4.566,10.199-10.199c0-3.34,0.389-6.661,1.155-9.871
	C76.406,421.559,73.025,416.056,67.546,414.749z"/>
<path d="M448.255,355.825H265.689c-5.632,0-10.199,4.566-10.199,10.199s4.567,10.199,10.199,10.199h182.566
	c5.632,0,10.199-4.566,10.199-10.199S453.887,355.825,448.255,355.825z"/>
<path d="M221.833,376.223c5.632,0,10.199-4.566,10.199-10.199s-4.567-10.199-10.199-10.199h-22.438
	c-5.632,0-10.199,4.566-10.199,10.199s4.567,10.199,10.199,10.199H221.833z"/>
<path d="M316.175,427.474h-137.89c-4.564-30.126-30.634-53.291-62.014-53.291c-14.031,0-27.299,4.53-38.37,13.102
	c-4.454,3.447-5.27,9.854-1.822,14.308c3.449,4.455,9.855,5.268,14.307,1.822c7.465-5.779,16.416-8.834,25.885-8.834
	c23.339,0,42.327,18.988,42.327,42.327c0,2.257,0.743,4.336,1.983,6.025c1.786,2.956,5.02,4.939,8.726,4.939h146.869
	c5.632,0,10.199-4.566,10.199-10.199C326.375,432.04,321.807,427.474,316.175,427.474z"/>
<g>
</g>
<g>
</g>
<g>
</g>
<g>
</g>
<g>
</g>
<g>
</g>
<g>
</g>
<g>
</g>
<g>
</g>
<g>
</g>
<g>
</g>
<g>
</g>
<g>
</g>
<g>
</g>
<g>
</g>
</svg>
