<?xml version="1.0" encoding="iso-8859-1"?>
<!-- Generator: Adobe Illustrator 19.0.0, SVG Export Plug-In . SVG Version: 6.00 Build 0)  -->
<svg version="1.1" id="Layer_1" xmlns="http://www.w3.org/2000/svg" xmlns:xlink="http://www.w3.org/1999/xlink" x="0px" y="0px"
	 viewBox="0 0 512 512" style="enable-background:new 0 0 512 512;" xml:space="preserve">
<g>
	<polygon style="fill:#FBB03B;" points="171.347,357.269 152.988,328.711 113.211,355.229 113.211,374.608 171.347,374.608 	"/>
	<polygon style="fill:#FBB03B;" points="376.351,427.643 345.753,422.544 318.215,438.863 318.215,458.241 376.351,458.241 	"/>
</g>
<path style="fill:#8CC63F;" d="M258.837,61.33L258.837,61.33c-6.882,0-12.461,5.579-12.461,12.461v38.405
	c0,6.314-5.119,11.433-11.433,11.433h-16.639V74.579c0-11.499-9.321-20.82-20.82-20.82s-20.82,9.321-20.82,20.82v89.744h-18.532
	c-6.314,0-11.433-5.119-11.433-11.433v-38.405c0-6.882-5.579-12.461-12.461-12.461l0,0c-6.882,0-12.461,5.579-12.461,12.461v55.124
	c0,10.845,8.792,19.638,19.638,19.638h35.25v40.534h41.639v-81.226h33.359c10.845,0,19.638-8.792,19.638-19.638V73.791
	C271.299,66.909,265.72,61.33,258.837,61.33z"/>
<circle style="fill:#F15A24;" cx="444.685" cy="100.248" r="41.817"/>
<path d="M501.801,219.58h-29.578c-5.633,0-10.199,4.566-10.199,10.199s4.566,10.199,10.199,10.199h29.578
	c5.633,0,10.199-4.566,10.199-10.199S507.434,219.58,501.801,219.58z"/>
<path d="M424.287,219.58H228.503v-60.828h23.159c16.451,0,29.836-13.384,29.836-29.837V73.791c0-12.495-10.166-22.661-22.661-22.661
	c-12.495,0-22.661,10.166-22.661,22.661v38.405c0,0.68-0.554,1.234-1.234,1.234h-6.44V74.579c0-17.104-13.915-31.019-31.019-31.019
	s-31.019,13.915-31.019,31.019v79.545h-8.333c-0.68,0-1.234-0.554-1.234-1.234v-38.405c0-12.495-10.166-22.661-22.661-22.661
	c-12.495,0-22.661,10.166-22.661,22.661v55.124c0,16.452,13.384,29.837,29.836,29.837h25.052v20.135H10.199
	C4.566,219.58,0,224.146,0,229.779s4.566,10.199,10.199,10.199h414.088c5.633,0,10.199-4.566,10.199-10.199
	S429.92,219.58,424.287,219.58z M234.943,133.829c11.928,0,21.632-9.705,21.632-21.633V73.791c0-1.247,1.015-2.262,2.262-2.262
	s2.262,1.015,2.262,2.262v55.124c0,5.205-4.234,9.438-9.437,9.438h-23.159v-4.524H234.943z M141.413,179.046
	c-5.205,0-9.437-4.234-9.437-9.438v-55.124c0-1.247,1.015-2.262,2.262-2.262c1.247,0,2.262,1.015,2.262,2.262v38.405
	c0,11.928,9.705,21.633,21.633,21.633h8.333v4.524L141.413,179.046L141.413,179.046z M186.864,74.579
	c0-5.856,4.764-10.62,10.62-10.62s10.62,4.764,10.62,10.62V219.58h-21.241L186.864,74.579L186.864,74.579z"/>
<path d="M171.347,384.807c5.633,0,10.199-4.566,10.199-10.199v-17.339c0-1.955-0.562-3.87-1.62-5.516l-18.359-28.558
	c-1.479-2.3-3.819-3.909-6.496-4.468c-2.677-0.561-5.466-0.019-7.741,1.498l-39.777,26.518c-2.837,1.891-4.542,5.076-4.542,8.486
	v9.179H88.733c-5.633,0-10.199,4.566-10.199,10.199c0,5.633,4.566,10.199,10.199,10.199H171.347z M161.147,364.408H123.41v-3.721
	l26.607-17.737l11.13,17.314V364.408z"/>
<path d="M218.263,364.408h-13.259c-5.633,0-10.199,4.566-10.199,10.199c0,5.633,4.566,10.199,10.199,10.199h13.259
	c5.633,0,10.199-4.566,10.199-10.199C228.462,368.975,223.896,364.408,218.263,364.408z"/>
<path d="M376.351,468.44c5.633,0,10.199-4.566,10.199-10.199v-30.598c0-4.985-3.604-9.24-8.522-10.06l-30.598-5.1
	c-2.371-0.397-4.808,0.06-6.876,1.286l-27.538,16.319c-3.1,1.837-5,5.172-5,8.774v9.179h-14.279
	c-5.633,0-10.199,4.566-10.199,10.199s4.566,10.199,10.199,10.199L376.351,468.44L376.351,468.44z M366.151,448.042h-37.737v-3.368
	l19.335-11.458l18.402,3.067V448.042z"/>
<path d="M423.267,448.042h-13.259c-5.633,0-10.199,4.566-10.199,10.199s4.566,10.199,10.199,10.199h13.259
	c5.633,0,10.199-4.566,10.199-10.199S428.9,448.042,423.267,448.042z"/>
<path d="M406.948,310.353c5.633,0,10.199-4.566,10.199-10.199s-4.566-10.199-10.199-10.199h-77.514
	c-5.633,0-10.199,4.566-10.199,10.199s4.566,10.199,10.199,10.199H406.948z"/>
<path d="M301.896,300.153c0-5.633-4.566-10.199-10.199-10.199h-18.359c-5.633,0-10.199,4.566-10.199,10.199
	s4.566,10.199,10.199,10.199h18.359C297.33,310.353,301.896,305.786,301.896,300.153z"/>
<path d="M444.685,152.265c28.682,0,52.016-23.334,52.016-52.016s-23.334-52.016-52.016-52.016s-52.016,23.334-52.016,52.016
	S416.003,152.265,444.685,152.265z M444.685,68.631c17.433,0,31.618,14.184,31.618,31.618s-14.184,31.618-31.618,31.618
	s-31.618-14.184-31.618-31.618S427.252,68.631,444.685,68.631z"/>
<path d="M353.33,172.081c-3.983,3.983-3.983,10.441,0,14.425c1.992,1.991,4.602,2.987,7.212,2.987c2.61,0,5.221-0.996,7.212-2.987
	l24.988-24.988c3.983-3.983,3.983-10.441,0-14.425c-3.983-3.982-10.441-3.982-14.425,0L353.33,172.081z"/>
<path d="M441.626,160.424c-5.633,0-10.199,4.566-10.199,10.199v17.339c0,5.633,4.566,10.199,10.199,10.199
	s10.199-4.566,10.199-10.199v-17.339C451.825,164.99,447.259,160.424,441.626,160.424z"/>
<path d="M351.873,109.428h21.418c5.633,0,10.199-4.566,10.199-10.199c0-5.633-4.566-10.199-10.199-10.199h-21.418
	c-5.633,0-10.199,4.566-10.199,10.199C341.673,104.862,346.24,109.428,351.873,109.428z"/>
<g>
</g>
<g>
</g>
<g>
</g>
<g>
</g>
<g>
</g>
<g>
</g>
<g>
</g>
<g>
</g>
<g>
</g>
<g>
</g>
<g>
</g>
<g>
</g>
<g>
</g>
<g>
</g>
<g>
</g>
</svg>
