<?xml version="1.0" encoding="iso-8859-1"?>
<!-- Generator: Adobe Illustrator 19.0.0, SVG Export Plug-In . SVG Version: 6.00 Build 0)  -->
<svg version="1.1" id="Layer_1" xmlns="http://www.w3.org/2000/svg" xmlns:xlink="http://www.w3.org/1999/xlink" x="0px" y="0px"
	 viewBox="0 0 512 512" style="enable-background:new 0 0 512 512;" xml:space="preserve">
<rect x="168.287" y="328.802" style="fill:#A67C52;" width="175.426" height="119.453"/>
<g>
	<polygon style="fill:#754C24;" points="134.504,328.924 256,102.502 377.496,328.924 	"/>
	<rect x="212.143" y="372.781" style="fill:#754C24;" width="55.076" height="74.454"/>
</g>
<polygon style="fill:#F15A24;" points="185.422,233.936 158.088,284.048 158.088,147.378 185.422,147.378 "/>
<path d="M160.128,67.825c5.633,0,10.199-4.566,10.199-10.199V27.028c0-5.633-4.566-10.199-10.199-10.199
	c-5.633,0-10.199,4.566-10.199,10.199v30.598C149.928,63.259,154.494,67.825,160.128,67.825z"/>
<path d="M501.801,438.056h-64.255c-5.632,0-10.199,4.566-10.199,10.199c0,5.633,4.567,10.199,10.199,10.199h64.255
	c5.632,0,10.199-4.566,10.199-10.199C512,442.622,507.433,438.056,501.801,438.056z"/>
<path d="M401.849,438.056H381.45c-5.632,0-10.199,4.566-10.199,10.199c0,5.633,4.567,10.199,10.199,10.199h20.398
	c5.632,0,10.199-4.566,10.199-10.199C412.048,442.622,407.481,438.056,401.849,438.056z"/>
<path d="M343.713,458.454c5.632,0,10.199-4.566,10.199-10.199V339.124h23.584c3.588,0,6.91-1.885,8.752-4.963
	c1.842-3.079,1.932-6.898,0.235-10.058L264.987,97.68c-1.777-3.312-5.23-5.377-8.988-5.377s-7.211,2.065-8.988,5.377l-51.391,95.776
	v-46.077c0-5.633-4.566-10.199-10.199-10.199h-27.334c-5.633,0-10.199,4.566-10.199,10.199V282.41l-22.372,41.692
	c-1.696,3.161-1.607,6.98,0.235,10.058c1.842,3.078,5.165,4.963,8.753,4.963h23.584v98.932H10.199
	C4.566,438.056,0,442.622,0,448.255c0,5.633,4.566,10.199,10.199,10.199L343.713,458.454L343.713,458.454z M168.287,157.578h6.935
	v73.758l-6.935,12.714V157.578z M151.552,318.725L256,124.073l104.448,194.652H151.552z M227.588,437.036l29.432-29.432v29.432
	H227.588z M222.343,413.432V382.98h30.452L222.343,413.432z M333.514,438.056h-56.096v-65.275c0-5.633-4.567-10.199-10.199-10.199
	h-55.076c-5.633,0-10.199,4.566-10.199,10.199v65.275h-23.458v-98.932h155.028V438.056z"/>
<path d="M189.705,306.486h56.096c5.633,0,10.199-4.566,10.199-10.199s-4.566-10.199-10.199-10.199h-56.096
	c-5.633,0-10.199,4.566-10.199,10.199S184.072,306.486,189.705,306.486z"/>
<path d="M270.024,243.761h13.769c5.632,0,10.199-4.566,10.199-10.199c0-5.633-4.567-10.199-10.199-10.199h-13.769
	c-5.632,0-10.199,4.566-10.199,10.199C259.825,239.195,264.392,243.761,270.024,243.761z"/>
<path d="M318.215,474.773H100.972c-5.633,0-10.199,4.566-10.199,10.199c0,5.633,4.566,10.199,10.199,10.199h217.243
	c5.632,0,10.199-4.566,10.199-10.199C328.414,479.339,323.847,474.773,318.215,474.773z"/>
<path d="M183.586,122.9c5.633,0,10.199-4.566,10.199-10.199V86.183c0-5.633-4.566-10.199-10.199-10.199s-10.199,4.566-10.199,10.199
	v26.518C173.386,118.334,177.953,122.9,183.586,122.9z"/>
<path d="M357.992,185.116h99.952c5.632,0,10.199-4.566,10.199-10.199c0-5.633-4.567-10.199-10.199-10.199h-99.952
	c-5.632,0-10.199,4.566-10.199,10.199C347.793,180.549,352.36,185.116,357.992,185.116z"/>
<path d="M472.223,224.892c5.632,0,10.199-4.566,10.199-10.199c0-5.633-4.567-10.199-10.199-10.199h-42.837
	c-5.632,0-10.199,4.566-10.199,10.199c0,5.633,4.567,10.199,10.199,10.199H472.223z"/>
<path d="M33.657,253.45h57.116c5.633,0,10.199-4.566,10.199-10.199c0-5.633-4.566-10.199-10.199-10.199H33.657
	c-5.633,0-10.199,4.566-10.199,10.199C23.458,248.884,28.024,253.45,33.657,253.45z"/>
<g>
</g>
<g>
</g>
<g>
</g>
<g>
</g>
<g>
</g>
<g>
</g>
<g>
</g>
<g>
</g>
<g>
</g>
<g>
</g>
<g>
</g>
<g>
</g>
<g>
</g>
<g>
</g>
<g>
</g>
</svg>
