<?xml version="1.0" encoding="iso-8859-1"?>
<!-- Generator: Adobe Illustrator 19.0.0, SVG Export Plug-In . SVG Version: 6.00 Build 0)  -->
<svg version="1.1" id="Layer_1" xmlns="http://www.w3.org/2000/svg" xmlns:xlink="http://www.w3.org/1999/xlink" x="0px" y="0px"
	 viewBox="0 0 512 512" style="enable-background:new 0 0 512 512;" xml:space="preserve">
<path style="fill:#E6BF54;" d="M127.949,349.311c0-47.879,57.331-86.693,128.051-86.693s128.051,38.814,128.051,86.693H127.949z"/>
<path style="fill:#A67C52;" d="M264.81,156.138c-3.705,4.449-9.283,7.283-15.526,7.283c-5.255,0-10.024-2.023-13.617-5.311
	c-0.884,2.168-2.142,4.141-3.679,5.857c13.967,20.095,23.75,43.852,29.141,70.969c5.594,28.137,4.118,66.942,4.081,67.459h32.607
	C298.086,299.027,302.606,221.16,264.81,156.138z"/>
<path style="fill:#754C24;" d="M265.417,131.102h-18.026h-14.239c-1.035,1.378-1.909,2.884-2.57,4.503
	c-2.983-2.73-6.785-4.567-10.994-5.119l-7.971,7.971l-14.663,14.663c1.29,9.913,9.746,17.574,20.01,17.574
	c5.974,0,11.327-2.603,15.023-6.725c1.538-1.716,2.796-3.689,3.679-5.857c3.593,3.288,8.363,5.311,13.617,5.311
	c6.243,0,11.821-2.834,15.526-7.283c2.916-3.501,4.674-8.002,4.674-12.916C269.484,138.667,267.96,134.48,265.417,131.102z"/>
<g>
	<path style="fill:#8CC63F;" d="M236.694,72.455c-18.029,18.029-24.266,41.023-13.931,51.358l65.289-65.289
		C277.717,48.189,254.723,54.426,236.694,72.455z"/>
	<path style="fill:#8CC63F;" d="M278.138,100.398c-29.581,0-53.561,13.746-53.561,30.704h8.574h32.265H331.7
		C331.7,114.144,307.719,100.398,278.138,100.398z"/>
	<path style="fill:#8CC63F;" d="M172.526,95.005c-25.436,0-46.056,11.82-46.056,26.402h92.111
		C218.581,106.824,197.961,95.005,172.526,95.005z"/>
	<path style="fill:#8CC63F;" d="M165.64,143.204c-19.861,19.861-26.732,45.192-15.347,56.577l46.661-46.661l22.634-22.634
		l2.628-2.628C210.832,116.472,185.501,123.342,165.64,143.204z"/>
</g>
<path d="M501.801,359.511c5.633,0,10.199-4.566,10.199-10.199s-4.566-10.199-10.199-10.199H393.509
	c-3.309-22.725-17.659-43.58-41.245-59.548c-13.279-8.991-28.769-15.881-45.591-20.477c-2.901-28.58-10.571-66.988-29.991-102.699
	c1.924-3.986,3.003-8.453,3.003-13.168c0-0.646-0.028-1.285-0.067-1.921h52.083c5.633,0,10.199-4.566,10.199-10.199
	c0-22.936-28.006-40.903-63.76-40.903c-2.588,0-5.128,0.105-7.626,0.288l24.751-24.751c3.983-3.983,3.983-10.441,0-14.424
	c-7.582-7.582-19.493-9.878-32.676-6.302c-11.39,3.09-23.148,10.276-33.107,20.234c-8.734,8.734-15.333,18.852-18.909,28.892
	c-0.139-0.082-0.268-0.167-0.408-0.248c-10.219-5.857-23.586-9.083-37.638-9.083c-14.052,0-27.421,3.226-37.638,9.083
	c-11.832,6.784-18.618,16.813-18.618,27.518c0,5.633,4.566,10.199,10.199,10.199h36.636c-1.584,1.392-3.145,2.854-4.678,4.387
	c-10.844,10.845-18.665,23.633-22.022,36.009c-3.896,14.364-1.526,26.791,6.675,34.992c1.992,1.992,4.602,2.987,7.212,2.987
	c2.61,0,5.221-0.995,7.212-2.987l36.551-36.551c5.577,6.396,13.776,10.45,22.908,10.45c4.331,0,8.448-0.915,12.179-2.555
	c10.249,17.053,17.618,36.641,21.981,58.589c0.979,4.926,1.73,10.201,2.306,15.535c-35.264,0.446-68.453,10.014-93.695,27.102
	c-27.076,18.331-41.987,43.101-41.987,69.747c0,5.633,4.566,10.199,10.199,10.199h0.563L501.801,359.511L501.801,359.511z
	 M278.139,110.597c16.014,0,29.416,4.507,36.909,10.305h-73.817c3.703-2.866,8.854-5.413,15.045-7.26
	C262.612,111.753,270.039,110.597,278.139,110.597z M145.677,111.206c6.248-3.414,15.479-6.002,26.848-6.002
	c11.369,0,20.6,2.589,26.848,6.002H145.677z M155.477,180.174c1.641-8.649,7.487-19.869,17.375-29.757
	c5.073-5.074,10.741-9.333,16.415-12.424c3.548-1.933,7.1-3.411,10.51-4.336c0.987-0.268,1.946-0.487,2.874-0.658L155.477,180.174z
	 M222.994,158.454c-1.679,1.275-3.764,2.04-6.029,2.04c-3.514,0-6.603-1.825-8.388-4.573l13.815-13.815
	c2.748,1.784,4.573,4.874,4.573,8.388C226.966,153.743,225.401,156.625,222.994,158.454z M229.121,103.031
	c2.259-7.72,7.617-16.195,14.785-23.364c8.096-8.095,16.516-12.811,23.385-14.806L229.121,103.031z M247.251,153.014
	c-4.543-0.942-7.968-4.974-7.968-9.792c0-0.657,0.067-1.298,0.19-1.921h19.622c0.121,0.622,0.19,1.264,0.19,1.921
	c0,5.515-4.486,10-10,10C248.588,153.222,247.908,153.149,247.251,153.014z M249.937,173.604c4.031-0.086,7.871-0.954,11.372-2.468
	c24.012,47.569,26.616,100.091,26.579,121.06H275.6c0.078-14.064-0.456-39.074-4.467-59.247
	C266.782,211.065,259.674,191.244,249.937,173.604z M139.209,339.112c3.325-15.889,14.385-30.756,31.963-42.656
	c22.255-15.067,51.949-23.429,83.715-23.62c0.301,7.466,0.354,14.24,0.323,19.36h-9.41c-5.633,0-10.199,4.566-10.199,10.199
	s4.566,10.199,10.199,10.199h69.355c5.633,0,10.199-4.566,10.199-10.199s-4.566-10.199-10.199-10.199h-6.83
	c0.017-3.206-0.024-7.055-0.173-11.415c11.996,3.89,23.037,9.149,32.676,15.674c17.578,11.9,28.638,26.768,31.963,42.656H139.209
	V339.112z"/>
<path d="M80.574,359.511h13.259c5.633,0,10.199-4.566,10.199-10.199s-4.566-10.199-10.199-10.199H80.574
	c-5.633,0-10.199,4.566-10.199,10.199S74.942,359.511,80.574,359.511z"/>
<path d="M47.936,339.112H10.199C4.566,339.112,0,343.678,0,349.311s4.566,10.199,10.199,10.199h37.737
	c5.633,0,10.199-4.566,10.199-10.199S53.569,339.112,47.936,339.112z"/>
<path d="M182.566,429.885c-5.633,0-10.199,4.566-10.199,10.199c0,4.499-3.661,8.159-8.159,8.159c-4.499,0-8.159-3.66-8.159-8.159
	c0-15.747-12.811-28.558-28.558-28.558s-28.558,12.811-28.558,28.558c0,4.499-3.66,8.159-8.159,8.159s-8.159-3.66-8.159-8.159
	c0-5.633-4.566-10.199-10.199-10.199s-10.199,4.566-10.199,10.199c0,15.747,12.811,28.558,28.558,28.558
	s28.558-12.811,28.558-28.558c0-4.499,3.66-8.159,8.159-8.159c4.499,0,8.159,3.66,8.159,8.159c0,15.747,12.811,28.558,28.558,28.558
	s28.558-12.811,28.558-28.558C192.765,434.451,188.199,429.885,182.566,429.885z"/>
<path d="M421.227,393.168c-15.747,0-28.558,12.811-28.558,28.558c0,4.499-3.66,8.159-8.159,8.159c-4.499,0-8.159-3.66-8.159-8.159
	c0-15.747-12.811-28.558-28.558-28.558s-28.558,12.811-28.558,28.558c0,5.633,4.566,10.199,10.199,10.199
	s10.199-4.566,10.199-10.199c0-4.499,3.66-8.159,8.159-8.159c4.499,0,8.159,3.66,8.159,8.159c0,15.747,12.811,28.558,28.558,28.558
	s28.558-12.811,28.558-28.558c0-4.499,3.66-8.159,8.159-8.159c4.499,0,8.159,3.66,8.159,8.159c0,5.633,4.566,10.199,10.199,10.199
	s10.199-4.566,10.199-10.199C449.785,405.979,436.974,393.168,421.227,393.168z"/>
<path d="M218.263,292.196h-5.1c-5.633,0-10.199,4.566-10.199,10.199s4.566,10.199,10.199,10.199h5.1
	c5.633,0,10.199-4.566,10.199-10.199S223.896,292.196,218.263,292.196z"/>
<g>
</g>
<g>
</g>
<g>
</g>
<g>
</g>
<g>
</g>
<g>
</g>
<g>
</g>
<g>
</g>
<g>
</g>
<g>
</g>
<g>
</g>
<g>
</g>
<g>
</g>
<g>
</g>
<g>
</g>
</svg>
