<?xml version="1.0" encoding="iso-8859-1"?>
<!-- Generator: Adobe Illustrator 19.0.0, SVG Export Plug-In . SVG Version: 6.00 Build 0)  -->
<svg version="1.1" id="Layer_1" xmlns="http://www.w3.org/2000/svg" xmlns:xlink="http://www.w3.org/1999/xlink" x="0px" y="0px"
	 viewBox="0 0 512 512" style="enable-background:new 0 0 512 512;" xml:space="preserve">
<rect x="10.199" y="47.936" style="fill:#0071BC;" width="491.602" height="346.773"/>
<path style="fill:#FBB03B;" d="M110.151,172.367c0-25.252,14.806-47.04,36.207-57.175c-8.196-3.882-17.356-6.06-27.028-6.06
	c-34.924,0-63.235,28.311-63.235,63.235s28.311,63.235,63.235,63.235c9.672,0,18.832-2.179,27.028-6.06
	C124.958,219.406,110.151,197.619,110.151,172.367z"/>
<g>
	<path style="fill:#F2F2F2;" d="M212.143,211.124h-4.08c-5.633,0-10.199-4.566-10.199-10.199c0-5.633,4.566-10.199,10.199-10.199
		h4.08c5.633,0,10.199,4.566,10.199,10.199C222.343,206.557,217.776,211.124,212.143,211.124z"/>
	<path style="fill:#F2F2F2;" d="M320.255,163.187h-4.08c-5.633,0-10.199-4.566-10.199-10.199s4.566-10.199,10.199-10.199h4.08
		c5.633,0,10.199,4.566,10.199,10.199S325.888,163.187,320.255,163.187z"/>
	<path style="fill:#F2F2F2;" d="M381.45,163.187h-23.905c-5.633,0-10.199-4.566-10.199-10.199s4.566-10.199,10.199-10.199h23.905
		c5.633,0,10.199,4.566,10.199,10.199S387.083,163.187,381.45,163.187z"/>
	<path style="fill:#F2F2F2;" d="M263.586,363.092h-55.522c-5.633,0-10.199-4.566-10.199-10.199c0-5.633,4.566-10.199,10.199-10.199
		h55.522c5.633,0,10.199,4.566,10.199,10.199C273.785,358.525,269.218,363.092,263.586,363.092z"/>
	<path style="fill:#F2F2F2;" d="M290.677,263.139h-4.08c-5.633,0-10.199-4.566-10.199-10.199c0-5.633,4.566-10.199,10.199-10.199
		h4.08c5.633,0,10.199,4.566,10.199,10.199C300.876,258.573,296.31,263.139,290.677,263.139z"/>
	<path style="fill:#F2F2F2;" d="M387.57,220.303h-4.08c-5.633,0-10.199-4.566-10.199-10.199s4.566-10.199,10.199-10.199h4.08
		c5.633,0,10.199,4.566,10.199,10.199S393.203,220.303,387.57,220.303z"/>
	<path style="fill:#F2F2F2;" d="M413.068,314.135h-4.08c-5.633,0-10.199-4.566-10.199-10.199c0-5.633,4.566-10.199,10.199-10.199
		h4.08c5.633,0,10.199,4.566,10.199,10.199C423.267,309.569,418.701,314.135,413.068,314.135z"/>
	<path style="fill:#F2F2F2;" d="M437.546,122.39h-4.08c-5.633,0-10.199-4.566-10.199-10.199s4.566-10.199,10.199-10.199h4.08
		c5.633,0,10.199,4.566,10.199,10.199S443.179,122.39,437.546,122.39z"/>
	<path style="fill:#F2F2F2;" d="M131.57,317.195h-4.08c-5.633,0-10.199-4.566-10.199-10.199s4.566-10.199,10.199-10.199h4.08
		c5.633,0,10.199,4.566,10.199,10.199S137.203,317.195,131.57,317.195z"/>
	<path style="fill:#F2F2F2;" d="M297.817,363.092h-4.08c-5.633,0-10.199-4.566-10.199-10.199c0-5.633,4.566-10.199,10.199-10.199
		h4.08c5.633,0,10.199,4.566,10.199,10.199C308.016,358.525,303.45,363.092,297.817,363.092z"/>
	<path style="fill:#F2F2F2;" d="M246.821,101.992h-4.08c-5.633,0-10.199-4.566-10.199-10.199s4.566-10.199,10.199-10.199h4.08
		c5.633,0,10.199,4.566,10.199,10.199S252.454,101.992,246.821,101.992z"/>
</g>
<path d="M453.865,422.247H281.498c-5.633,0-10.199,4.566-10.199,10.199s4.566,10.199,10.199,10.199h172.367
	c5.633,0,10.199-4.566,10.199-10.199S459.498,422.247,453.865,422.247z"/>
<path d="M250.9,453.865H105.052c-5.633,0-10.199,4.566-10.199,10.199s4.566,10.199,10.199,10.199H250.9
	c5.633,0,10.199-4.566,10.199-10.199S256.533,453.865,250.9,453.865z"/>
<path d="M65.275,453.865H55.076c-5.633,0-10.199,4.566-10.199,10.199s4.566,10.199,10.199,10.199h10.199
	c5.633,0,10.199-4.566,10.199-10.199S70.908,453.865,65.275,453.865z"/>
<path d="M150.724,124.41c3.563-1.687,5.834-5.276,5.834-9.218c0-3.942-2.271-7.531-5.834-9.218
	c-9.868-4.672-20.429-7.042-31.393-7.042c-40.492,0-73.434,32.942-73.434,73.434s32.942,73.434,73.434,73.434
	c10.964,0,21.525-2.369,31.393-7.043c3.563-1.687,5.834-5.276,5.834-9.218s-2.271-7.531-5.834-9.218
	c-18.451-8.737-30.373-27.56-30.373-47.956S132.272,133.148,150.724,124.41z M99.952,172.367c0,20.2,8.445,39.285,22.6,52.941
	c-1.068,0.063-2.142,0.095-3.222,0.095c-29.244,0-53.036-23.792-53.036-53.036s23.792-53.036,53.036-53.036
	c1.08,0,2.154,0.032,3.222,0.095C108.397,133.081,99.952,152.167,99.952,172.367z"/>
<path d="M441.626,404.908c5.633,0,10.199-4.566,10.199-10.199s-4.566-10.199-10.199-10.199h-19.379
	c-5.633,0-10.199,4.566-10.199,10.199s4.566,10.199,10.199,10.199H441.626z"/>
<path d="M501.801,37.737H10.199C4.566,37.737,0,42.303,0,47.936v346.773c0,5.633,4.566,10.199,10.199,10.199h365.131
	c5.633,0,10.199-4.566,10.199-10.199s-4.566-10.199-10.199-10.199H20.398V58.135h471.203V384.51h-5.1
	c-5.633,0-10.199,4.566-10.199,10.199s4.566,10.199,10.199,10.199h15.299c5.633,0,10.199-4.566,10.199-10.199V47.936
	C512,42.303,507.434,37.737,501.801,37.737z"/>
<g>
</g>
<g>
</g>
<g>
</g>
<g>
</g>
<g>
</g>
<g>
</g>
<g>
</g>
<g>
</g>
<g>
</g>
<g>
</g>
<g>
</g>
<g>
</g>
<g>
</g>
<g>
</g>
<g>
</g>
</svg>
