<?xml version="1.0" encoding="iso-8859-1"?>
<!-- Generator: Adobe Illustrator 19.0.0, SVG Export Plug-In . SVG Version: 6.00 Build 0)  -->
<svg version="1.1" id="Layer_1" xmlns="http://www.w3.org/2000/svg" xmlns:xlink="http://www.w3.org/1999/xlink" x="0px" y="0px"
	 viewBox="0 0 512 512" style="enable-background:new 0 0 512 512;" xml:space="preserve">
<rect x="10.199" y="47.936" style="fill:#0071BC;" width="491.602" height="346.773"/>
<path style="fill:#FBB03B;" d="M110.151,172.367c0-25.252,14.806-47.04,36.207-57.175c-8.196-3.882-17.356-6.06-27.028-6.06
	c-34.924,0-63.235,28.311-63.235,63.235s28.311,63.235,63.235,63.235c9.672,0,18.832-2.179,27.028-6.06
	C124.958,219.406,110.151,197.619,110.151,172.367z"/>
<g>
	<path style="fill:#F2F2F2;" d="M212.143,211.124h-4.08c-5.633,0-10.199-4.566-10.199-10.199c0-5.633,4.566-10.199,10.199-10.199
		h4.08c5.633,0,10.199,4.566,10.199,10.199C222.343,206.557,217.776,211.124,212.143,211.124z"/>
	<path style="fill:#F2F2F2;" d="M320.255,163.187h-4.08c-5.632,0-10.199-4.566-10.199-10.199s4.567-10.199,10.199-10.199h4.08
		c5.632,0,10.199,4.566,10.199,10.199S325.887,163.187,320.255,163.187z"/>
	<path style="fill:#F2F2F2;" d="M381.45,163.187h-23.905c-5.632,0-10.199-4.566-10.199-10.199s4.567-10.199,10.199-10.199h23.905
		c5.632,0,10.199,4.566,10.199,10.199S387.082,163.187,381.45,163.187z"/>
	<path style="fill:#F2F2F2;" d="M437.546,122.39h-4.08c-5.632,0-10.199-4.566-10.199-10.199s4.567-10.199,10.199-10.199h4.08
		c5.632,0,10.199,4.566,10.199,10.199S443.178,122.39,437.546,122.39z"/>
	<path style="fill:#F2F2F2;" d="M246.821,101.992h-4.08c-5.633,0-10.199-4.566-10.199-10.199s4.566-10.199,10.199-10.199h4.08
		c5.633,0,10.199,4.566,10.199,10.199S252.454,101.992,246.821,101.992z"/>
	<polygon style="fill:#F2F2F2;" points="380.664,206.959 336.176,276.314 424.658,276.314 	"/>
</g>
<polygon style="fill:#666666;" points="424.658,276.314 336.176,276.314 261.568,392.623 203.357,301.877 143.809,394.709 
	499.761,394.709 "/>
<path d="M453.865,422.247H281.498c-5.632,0-10.199,4.566-10.199,10.199s4.567,10.199,10.199,10.199h172.367
	c5.632,0,10.199-4.566,10.199-10.199S459.497,422.247,453.865,422.247z"/>
<path d="M250.9,453.865H105.052c-5.633,0-10.199,4.566-10.199,10.199s4.566,10.199,10.199,10.199H250.9
	c5.633,0,10.199-4.566,10.199-10.199S256.533,453.865,250.9,453.865z"/>
<path d="M65.275,453.865H55.076c-5.633,0-10.199,4.566-10.199,10.199s4.566,10.199,10.199,10.199h10.199
	c5.633,0,10.199-4.566,10.199-10.199S70.908,453.865,65.275,453.865z"/>
<path d="M150.724,124.41c3.563-1.687,5.834-5.276,5.834-9.218c0-3.942-2.271-7.531-5.834-9.218
	c-9.868-4.672-20.429-7.042-31.393-7.042c-40.492,0-73.434,32.942-73.434,73.434s32.942,73.434,73.434,73.434
	c10.964,0,21.525-2.369,31.393-7.043c3.563-1.687,5.834-5.276,5.834-9.218s-2.271-7.531-5.834-9.218
	c-18.451-8.737-30.373-27.56-30.373-47.956S132.272,133.148,150.724,124.41z M99.952,172.367c0,20.2,8.445,39.285,22.6,52.941
	c-1.068,0.063-2.142,0.095-3.222,0.095c-29.244,0-53.036-23.792-53.036-53.036s23.792-53.036,53.036-53.036
	c1.08,0,2.154,0.032,3.222,0.095C108.397,133.081,99.952,152.167,99.952,172.367z"/>
<path d="M501.801,404.908c5.632,0,10.199-4.566,10.199-10.199V47.936c0-5.633-4.567-10.199-10.199-10.199H10.199
	C4.566,37.737,0,42.303,0,47.936v346.773c0,5.633,4.566,10.199,10.199,10.199h85.673c5.633,0,10.199-4.566,10.199-10.199
	s-4.566-10.199-10.199-10.199H20.398V58.135h471.203v304.671l-58.33-91.955l-43.994-69.355c-1.865-2.941-5.104-4.727-8.587-4.737
	c-0.009,0-0.017,0-0.025,0c-3.473,0-6.709,1.768-8.585,4.693l-44.489,69.355l-66.023,102.926l-49.626-77.363
	c-1.876-2.924-5.111-4.693-8.585-4.693c-3.474,0-6.709,1.769-8.585,4.693l-59.548,92.832c-2.013,3.139-2.153,7.126-0.365,10.399
	c1.789,3.272,5.221,5.308,8.95,5.308h357.991V404.908z M162.468,384.51l40.889-63.743l40.89,63.743H162.468z M380.617,225.925
	l25.494,40.191h-51.275L380.617,225.925z M278.889,384.51l62.861-97.997h77.3l62.163,97.997H278.889z"/>
<path d="M368.191,306.911h-20.398c-5.632,0-10.199,4.566-10.199,10.199s4.567,10.199,10.199,10.199h20.398
	c5.632,0,10.199-4.566,10.199-10.199S373.823,306.911,368.191,306.911z"/>
<path d="M392.669,356.887c0,5.633,4.567,10.199,10.199,10.199h19.378c5.632,0,10.199-4.566,10.199-10.199
	s-4.567-10.199-10.199-10.199h-19.378C397.237,346.688,392.669,351.255,392.669,356.887z"/>
<g>
</g>
<g>
</g>
<g>
</g>
<g>
</g>
<g>
</g>
<g>
</g>
<g>
</g>
<g>
</g>
<g>
</g>
<g>
</g>
<g>
</g>
<g>
</g>
<g>
</g>
<g>
</g>
<g>
</g>
</svg>
