<?xml version="1.0" encoding="iso-8859-1"?>
<!-- Generator: Adobe Illustrator 19.0.0, SVG Export Plug-In . SVG Version: 6.00 Build 0)  -->
<svg version="1.1" id="Layer_1" xmlns="http://www.w3.org/2000/svg" xmlns:xlink="http://www.w3.org/1999/xlink" x="0px" y="0px"
	 viewBox="0 0 512 512" style="enable-background:new 0 0 512 512;" xml:space="preserve">
<circle style="fill:#FBB03B;" cx="147.888" cy="147.888" r="52.016"/>
<path d="M501.801,363.092h-37.737c-5.632,0-10.199,4.566-10.199,10.199c0,5.633,4.567,10.199,10.199,10.199h37.737
	c5.632,0,10.199-4.566,10.199-10.199C512,367.658,507.433,363.092,501.801,363.092z"/>
<path d="M416.128,363.092h-77.368l-94.925-94.925c-3.035-3.034-7.503-3.75-11.221-2.161c-1.733,0.433-3.377,1.316-4.732,2.671
	l-94.417,94.415H62.361L94.853,330.6l11.147,11.147c1.992,1.991,4.601,2.986,7.212,2.986s5.22-0.995,7.212-2.987
	c3.983-3.983,3.983-10.441,0-14.425l-18.359-18.359c-3.984-3.983-10.44-3.983-14.425,0l-54.056,54.056
	c-0.023,0.023-0.043,0.049-0.065,0.072H10.199C4.567,363.091,0,367.657,0,373.29s4.567,10.199,10.199,10.199h405.928
	c5.632,0,10.199-4.566,10.199-10.199S421.759,363.092,416.128,363.092z M236.112,289.293l73.798,73.798H162.313L236.112,289.293z"/>
<path d="M147.888,210.104c30.831,0,56.482-22.547,61.365-52.016h33.492c5.632,0,10.199-4.566,10.199-10.199
	c0-5.633-4.567-10.199-10.199-10.199h-33.491c-4.882-29.469-30.534-52.016-61.366-52.016c-34.306,0-62.215,27.909-62.215,62.215
	S113.582,210.104,147.888,210.104z M147.888,106.072c23.057,0,41.817,18.759,41.817,41.817s-18.759,41.817-41.817,41.817
	s-41.817-18.759-41.817-41.817S124.831,106.072,147.888,106.072z"/>
<path d="M147.888,73.434c5.632,0,10.199-4.566,10.199-10.199V50.996c0-5.633-4.567-10.199-10.199-10.199
	c-5.632,0-10.199,4.566-10.199,10.199v12.239C137.689,68.868,142.256,73.434,147.888,73.434z"/>
<path d="M81.24,94.221c1.992,1.991,4.602,2.987,7.212,2.987c2.61,0,5.22-0.996,7.212-2.987c3.983-3.983,3.983-10.441,0-14.425
	l-8.654-8.654c-3.984-3.982-10.44-3.982-14.425,0c-3.983,3.983-3.983,10.441,0,14.425L81.24,94.221z"/>
<path d="M50.874,63.854c1.991,1.991,4.601,2.986,7.211,2.986s5.221-0.996,7.212-2.988c3.983-3.983,3.983-10.441-0.001-14.424
	l-3.308-3.308c-3.982-3.982-10.441-3.983-14.424,0.001c-3.983,3.983-3.983,10.441,0.001,14.424L50.874,63.854z"/>
<path d="M50.996,156.048h12.239c5.632,0,10.199-4.566,10.199-10.199c0-5.633-4.567-10.199-10.199-10.199H50.996
	c-5.632,0-10.199,4.566-10.199,10.199C40.797,151.482,45.364,156.048,50.996,156.048z"/>
<path d="M79.798,198.074l-8.654,8.654c-3.983,3.983-3.983,10.441,0,14.424c1.992,1.992,4.602,2.987,7.212,2.987
	c2.61,0,5.22-0.996,7.212-2.987l8.654-8.654c3.983-3.983,3.983-10.441,0-14.424S83.782,194.091,79.798,198.074z"/>
<path d="M135.649,230.502v12.239c0,5.633,4.567,10.199,10.199,10.199c5.632,0,10.199-4.566,10.199-10.199v-12.239
	c0-5.633-4.567-10.199-10.199-10.199C140.217,220.303,135.649,224.869,135.649,230.502z"/>
<path d="M198.073,199.516c-3.983,3.983-3.983,10.441,0,14.425l8.654,8.654c1.992,1.991,4.602,2.987,7.212,2.987
	c2.61,0,5.22-0.996,7.212-2.987c3.983-3.983,3.983-10.441,0-14.425l-8.654-8.654C208.513,195.533,202.056,195.533,198.073,199.516z"
	/>
<path d="M206.727,98.651c2.61,0,5.22-0.996,7.212-2.987l8.654-8.654c3.983-3.983,3.983-10.441,0-14.424
	c-3.982-3.983-10.438-3.983-14.425,0l-8.654,8.654c-3.983,3.983-3.983,10.441,0,14.424
	C201.507,97.655,204.117,98.651,206.727,98.651z"/>
<path d="M318.215,450.805H125.45c-5.632,0-10.199,4.566-10.199,10.199s4.567,10.199,10.199,10.199h192.765
	c5.632,0,10.199-4.566,10.199-10.199S323.847,450.805,318.215,450.805z"/>
<path d="M81.594,450.805H53.036c-5.632,0-10.199,4.566-10.199,10.199s4.567,10.199,10.199,10.199h28.558
	c5.632,0,10.199-4.566,10.199-10.199S87.226,450.805,81.594,450.805z"/>
<path d="M341.673,410.008h-28.558c-5.632,0-10.199,4.566-10.199,10.199s4.567,10.199,10.199,10.199h28.558
	c5.632,0,10.199-4.566,10.199-10.199S347.305,410.008,341.673,410.008z"/>
<path d="M423.267,111.171h-57.116c-5.632,0-10.199,4.566-10.199,10.199s4.567,10.199,10.199,10.199h57.116
	c5.632,0,10.199-4.566,10.199-10.199S428.899,111.171,423.267,111.171z"/>
<path d="M465.084,131.57h21.418c5.632,0,10.199-4.566,10.199-10.199s-4.567-10.199-10.199-10.199h-21.418
	c-5.632,0-10.199,4.566-10.199,10.199S459.452,131.57,465.084,131.57z"/>
<path d="M343.713,206.024h57.116c5.632,0,10.199-4.566,10.199-10.199s-4.567-10.199-10.199-10.199h-57.116
	c-5.632,0-10.199,4.566-10.199,10.199S338.081,206.024,343.713,206.024z"/>
<path d="M280.478,206.024h21.418c5.632,0,10.199-4.566,10.199-10.199s-4.567-10.199-10.199-10.199h-21.418
	c-5.632,0-10.199,4.566-10.199,10.199S274.846,206.024,280.478,206.024z"/>
<g>
</g>
<g>
</g>
<g>
</g>
<g>
</g>
<g>
</g>
<g>
</g>
<g>
</g>
<g>
</g>
<g>
</g>
<g>
</g>
<g>
</g>
<g>
</g>
<g>
</g>
<g>
</g>
<g>
</g>
</svg>
