<?xml version="1.0" encoding="iso-8859-1"?>
<!-- Generator: Adobe Illustrator 19.0.0, SVG Export Plug-In . SVG Version: 6.00 Build 0)  -->
<svg version="1.1" id="Layer_1" xmlns="http://www.w3.org/2000/svg" xmlns:xlink="http://www.w3.org/1999/xlink" x="0px" y="0px"
	 viewBox="0 0 512 512" style="enable-background:new 0 0 512 512;" xml:space="preserve">
<polygon style="fill:#F2F2F2;" points="178.486,261.61 203.984,296.287 227.58,265.662 182.566,202.454 134.629,257.53 
	94.853,242.231 76.255,283.051 138.709,308.526 "/>
<polygon style="fill:#B3B3B3;" points="304.956,374.311 227.58,265.662 203.984,296.287 178.486,261.61 138.709,308.526 
	76.255,283.051 34.677,374.311 "/>
<polygon style="fill:#666666;" points="398.219,224.613 339.575,205.421 289.792,216.412 250.9,297.307 304.956,373.801 
	477.323,373.801 "/>
<polygon style="fill:#F2F2F2;" points="382.963,195.842 361.052,154.518 327.394,138.199 301.126,192.837 289.792,216.412 
	339.575,205.421 398.219,224.613 "/>
<path d="M501.801,364.112H483.73l-76.5-144.276l-15.256-28.771l-21.911-41.324c-1.015-1.913-2.613-3.454-4.561-4.399l-33.657-16.319
	c-2.439-1.183-5.249-1.345-7.809-0.453c-2.559,0.892-4.658,2.768-5.833,5.211L280.6,211.993l-31.726,65.989l-12.987-18.235
	l-45.014-63.208c-1.812-2.545-4.692-4.118-7.812-4.271c-3.123-0.149-6.139,1.134-8.19,3.491l-43.248,49.688l-33.111-12.736
	c-5.032-1.936-10.706,0.382-12.943,5.291l-18.597,40.82l-38.858,85.288H10.199C4.566,364.112,0,368.678,0,374.311
	s4.566,10.199,10.199,10.199h24.478h270.279h196.845c5.633,0,10.199-4.566,10.199-10.199S507.434,364.112,501.801,364.112z
	 M332.152,151.841l21.45,10.4l23.763,44.815l-34.617-11.329c-1.028-0.337-2.099-0.506-3.172-0.506c-0.736,0-1.474,0.08-2.199,0.24
	l-29.306,6.47L332.152,151.841z M296.836,225.301l28.404-6.271l13.813-3.05l52.083,17.045l69.235,130.576H310.237l-47.546-67.282
	L296.836,225.301z M100.153,255.197l30.815,11.852c4.001,1.539,8.54,0.41,11.355-2.823l39.441-45.316l33.125,46.512l-10.714,13.906
	l-17.471-23.761c-1.849-2.514-4.746-4.043-7.864-4.151c-3.132-0.102-6.115,1.218-8.133,3.597l-34.994,41.275l-45.774-18.672
	L100.153,255.197z M50.532,364.112l30.942-67.917l53.383,21.774c4.084,1.667,8.778,0.516,11.631-2.848l31.428-37.069l17.85,24.276
	c1.898,2.581,4.899,4.121,8.102,4.157c3.208,0.037,6.238-1.436,8.194-3.974l15.195-19.72l57.915,81.319H50.532z"/>
<path d="M475.283,407.458H322.295c-5.633,0-10.199,4.566-10.199,10.199s4.566,10.199,10.199,10.199h152.988
	c5.633,0,10.199-4.566,10.199-10.199S480.916,407.458,475.283,407.458z"/>
<path d="M277.418,407.458h-30.598c-5.633,0-10.199,4.566-10.199,10.199s4.566,10.199,10.199,10.199h30.598
	c5.633,0,10.199-4.566,10.199-10.199S283.051,407.458,277.418,407.458z"/>
<path d="M170.327,328.924h-12.239c-5.633,0-10.199,4.566-10.199,10.199c0,5.633,4.566,10.199,10.199,10.199h12.239
	c5.633,0,10.199-4.566,10.199-10.199C180.526,333.49,175.96,328.924,170.327,328.924z"/>
<path d="M143.809,160.637c0,5.633,4.566,10.199,10.199,10.199h48.756c5.633,0,10.199-4.566,10.199-10.199
	c0-5.633-4.566-10.199-10.199-10.199h-48.756C148.375,150.438,143.809,155.004,143.809,160.637z"/>
<path d="M238.46,170.837h18.283c5.633,0,10.199-4.566,10.199-10.199c0-5.633-4.566-10.199-10.199-10.199H238.46
	c-5.633,0-10.199,4.566-10.199,10.199C228.261,166.27,232.827,170.837,238.46,170.837z"/>
<path d="M361.328,114.741h48.756c5.633,0,10.199-4.566,10.199-10.199c0-5.633-4.566-10.199-10.199-10.199h-48.756
	c-5.633,0-10.199,4.566-10.199,10.199C351.129,110.175,355.695,114.741,361.328,114.741z"/>
<path d="M445.781,114.741h18.283c5.633,0,10.199-4.566,10.199-10.199c0-5.633-4.566-10.199-10.199-10.199h-18.283
	c-5.633,0-10.199,4.566-10.199,10.199C435.581,110.175,440.148,114.741,445.781,114.741z"/>
<path d="M57.116,104.542h48.756c5.633,0,10.199-4.566,10.199-10.199c0-5.633-4.566-10.199-10.199-10.199H57.116
	c-5.633,0-10.199,4.566-10.199,10.199C46.916,99.976,51.483,104.542,57.116,104.542z"/>
<path d="M141.568,104.542h18.283c5.633,0,10.199-4.566,10.199-10.199c0-5.633-4.566-10.199-10.199-10.199h-18.283
	c-5.633,0-10.199,4.566-10.199,10.199C131.369,99.976,135.935,104.542,141.568,104.542z"/>
<path d="M340.653,267.729h22.438c5.633,0,10.199-4.566,10.199-10.199c0-5.633-4.566-10.199-10.199-10.199h-22.438
	c-5.633,0-10.199,4.566-10.199,10.199C330.454,263.163,335.02,267.729,340.653,267.729z"/>
<path d="M333.514,309.546c0-5.633-4.566-10.199-10.199-10.199h-16.319c-5.633,0-10.199,4.566-10.199,10.199
	c0,5.633,4.566,10.199,10.199,10.199h16.319C328.948,319.745,333.514,315.179,333.514,309.546z"/>
<g>
</g>
<g>
</g>
<g>
</g>
<g>
</g>
<g>
</g>
<g>
</g>
<g>
</g>
<g>
</g>
<g>
</g>
<g>
</g>
<g>
</g>
<g>
</g>
<g>
</g>
<g>
</g>
<g>
</g>
</svg>
