<?xml version="1.0" encoding="iso-8859-1"?>
<!-- Generator: Adobe Illustrator 19.0.0, SVG Export Plug-In . SVG Version: 6.00 Build 0)  -->
<svg version="1.1" id="Layer_1" xmlns="http://www.w3.org/2000/svg" xmlns:xlink="http://www.w3.org/1999/xlink" x="0px" y="0px"
	 viewBox="0 0 512 512" style="enable-background:new 0 0 512 512;" xml:space="preserve">
<circle style="fill:#FBB03B;" cx="121.748" cy="142.054" r="35.589"/>
<polygon style="fill:#F2F2F2;" points="382.704,193.064 338.216,262.419 426.698,262.419 "/>
<polygon style="fill:#B3B3B3;" points="426.698,262.419 338.216,262.419 263.608,378.728 205.397,287.982 145.849,380.814 
	501.801,380.814 "/>
<path d="M110.151,370.531h-7.672c-5.632,0-10.199,4.566-10.199,10.199s4.567,10.199,10.199,10.199h7.672
	c5.632,0,10.199-4.566,10.199-10.199S115.783,370.531,110.151,370.531z"/>
<path d="M69.274,370.531H10.199C4.567,370.531,0,375.097,0,380.73s4.567,10.199,10.199,10.199h59.075
	c5.632,0,10.199-4.566,10.199-10.199S74.906,370.531,69.274,370.531z"/>
<path d="M167.535,142.055c0-25.248-20.541-45.788-45.789-45.788s-45.789,20.54-45.789,45.788s20.541,45.789,45.789,45.789
	S167.535,167.303,167.535,142.055z M96.356,142.055c0-14,11.39-25.39,25.391-25.39s25.391,11.389,25.391,25.39
	c0,14-11.39,25.391-25.391,25.391S96.356,156.056,96.356,142.055z"/>
<path d="M121.746,79.991c5.632,0,10.199-4.566,10.199-10.199V59.344c0-5.633-4.567-10.199-10.199-10.199
	s-10.199,4.566-10.199,10.199v10.448C111.547,75.425,116.114,79.991,121.746,79.991z"/>
<path d="M63.798,97.299c1.991,1.991,4.601,2.986,7.211,2.986s5.221-0.996,7.212-2.987c3.983-3.984,3.983-10.441-0.001-14.425
	l-7.388-7.387c-3.982-3.982-10.441-3.982-14.424,0.001c-3.983,3.984-3.983,10.441,0.001,14.425L63.798,97.299z"/>
<path d="M25.188,58.69c1.991,1.992,4.602,2.988,7.212,2.988s5.22-0.995,7.211-2.986c3.983-3.983,3.984-10.441,0.001-14.424
	l-2.823-2.823c-3.981-3.983-10.44-3.984-14.424-0.001s-3.984,10.441-0.001,14.424L25.188,58.69z"/>
<path d="M28.835,140.314c0,5.633,4.567,10.199,10.199,10.199h10.447c5.632,0,10.199-4.566,10.199-10.199
	s-4.567-10.199-10.199-10.199H39.034C33.402,130.115,28.835,134.681,28.835,140.314z"/>
<path d="M62.565,183.839l-7.387,7.387c-3.983,3.983-3.983,10.441,0,14.425c1.992,1.992,4.602,2.987,7.212,2.987
	s5.22-0.995,7.212-2.987l7.387-7.387c3.983-3.983,3.983-10.441,0-14.425C73.005,179.856,66.549,179.856,62.565,183.839z"/>
<path d="M130.202,244.06v-24.814c0-5.633-4.567-10.199-10.199-10.199s-10.199,4.566-10.199,10.199v24.814
	c0,5.633,4.567,10.199,10.199,10.199S130.202,249.693,130.202,244.06z"/>
<path d="M177.955,185.07c-3.984-3.983-10.44-3.983-14.425,0c-3.983,3.983-3.983,10.441,0,14.425l7.387,7.387
	c1.992,1.992,4.602,2.987,7.212,2.987c2.61,0,5.22-0.995,7.212-2.987c3.983-3.983,3.983-10.441,0-14.425L177.955,185.07z"/>
<path d="M182.716,142.056c0,5.633,4.567,10.199,10.199,10.199h36.567c5.632,0,10.199-4.566,10.199-10.199
	c0-5.633-4.567-10.199-10.199-10.199h-36.567C187.283,131.857,182.716,136.423,182.716,142.056z"/>
<path d="M174.398,99.093c2.611,0,5.22-0.995,7.212-2.987l12.611-12.611c3.983-3.983,3.983-10.441,0-14.425
	c-3.984-3.983-10.44-3.983-14.425,0l-12.611,12.611c-3.983,3.983-3.983,10.441,0,14.425
	C169.178,98.098,171.788,99.093,174.398,99.093z"/>
<path d="M395.729,419.487H202.964c-5.632,0-10.199,4.566-10.199,10.199s4.567,10.199,10.199,10.199h192.765
	c5.632,0,10.199-4.566,10.199-10.199S401.361,419.487,395.729,419.487z"/>
<path d="M468.143,419.487h-28.558c-5.632,0-10.199,4.566-10.199,10.199s4.567,10.199,10.199,10.199h28.558
	c5.632,0,10.199-4.566,10.199-10.199S473.775,419.487,468.143,419.487z"/>
<path d="M129.53,453.144h-28.558c-5.632,0-10.199,4.566-10.199,10.199c0,5.633,4.567,10.199,10.199,10.199h28.558
	c5.632,0,10.199-4.566,10.199-10.199C139.729,457.71,135.162,453.144,129.53,453.144z"/>
<path d="M308.065,129.618h48.756c5.632,0,10.199-4.566,10.199-10.199c0-5.633-4.567-10.199-10.199-10.199h-48.756
	c-5.632,0-10.199,4.566-10.199,10.199C297.866,125.052,302.432,129.618,308.065,129.618z"/>
<path d="M392.517,129.618h18.284c5.632,0,10.199-4.566,10.199-10.199c0-5.633-4.567-10.199-10.199-10.199h-18.284
	c-5.632,0-10.199,4.566-10.199,10.199C382.318,125.052,386.884,129.618,392.517,129.618z"/>
<path d="M288.911,193.175h48.756c5.632,0,10.199-4.566,10.199-10.199c0-5.633-4.567-10.199-10.199-10.199h-48.756
	c-5.632,0-10.199,4.566-10.199,10.199C278.712,188.608,283.278,193.175,288.911,193.175z"/>
<path d="M224.731,182.975c0,5.633,4.567,10.199,10.199,10.199h18.283c5.632,0,10.199-4.566,10.199-10.199
	c0-5.633-4.567-10.199-10.199-10.199H234.93C229.297,172.776,224.731,177.342,224.731,182.975z"/>
<path d="M510.413,375.351L435.31,256.955l-43.994-69.355c-1.865-2.941-5.104-4.727-8.587-4.737c-0.009,0-0.017,0-0.025,0
	c-3.473,0-6.709,1.768-8.585,4.693l-44.489,69.355l-66.022,102.926l-49.626-77.363c-1.876-2.924-5.111-4.693-8.585-4.693
	c-3.474,0-6.709,1.769-8.585,4.693l-59.548,92.832c-2.014,3.139-2.153,7.126-0.364,10.399c1.788,3.272,5.22,5.308,8.949,5.308
	h355.952c3.72,0,7.145-2.026,8.938-5.285C512.53,382.469,512.406,378.492,510.413,375.351z M164.508,370.615l40.889-63.743
	l40.89,63.743H164.508z M382.657,212.029l25.494,40.191h-51.275L382.657,212.029z M280.929,370.615l62.861-97.997h77.3
	l62.163,97.997H280.929z"/>
<path d="M370.231,293.017h-20.398c-5.632,0-10.199,4.566-10.199,10.199s4.567,10.199,10.199,10.199h20.398
	c5.632,0,10.199-4.566,10.199-10.199S375.863,293.017,370.231,293.017z"/>
<path d="M394.709,342.993c0,5.633,4.567,10.199,10.199,10.199h19.378c5.632,0,10.199-4.566,10.199-10.199
	s-4.567-10.199-10.199-10.199h-19.378C399.276,332.794,394.709,337.36,394.709,342.993z"/>
<g>
</g>
<g>
</g>
<g>
</g>
<g>
</g>
<g>
</g>
<g>
</g>
<g>
</g>
<g>
</g>
<g>
</g>
<g>
</g>
<g>
</g>
<g>
</g>
<g>
</g>
<g>
</g>
<g>
</g>
</svg>
