<?xml version="1.0" encoding="iso-8859-1"?>
<!-- Generator: Adobe Illustrator 19.0.0, SVG Export Plug-In . SVG Version: 6.00 Build 0)  -->
<svg version="1.1" id="Layer_1" xmlns="http://www.w3.org/2000/svg" xmlns:xlink="http://www.w3.org/1999/xlink" x="0px" y="0px"
	 viewBox="0 0 512 512" style="enable-background:new 0 0 512 512;" xml:space="preserve">
<path style="fill:#F15A24;" d="M376.351,324.172c0-66.468-53.882-120.351-120.351-120.351s-120.351,53.882-120.351,120.351h-34.677
	c0-85.619,69.409-155.028,155.028-155.028s155.028,69.409,155.028,155.028H376.351z"/>
<path style="fill:#8CC63F;" d="M445.705,324.172c0-104.771-84.934-189.705-189.705-189.705S66.295,219.401,66.295,324.172H31.618
	C31.618,200.249,132.077,99.79,256,99.79s224.382,100.459,224.382,224.382H445.705z"/>
<path style="fill:#FBB03B;" d="M411.028,324.172c0-85.619-69.409-155.028-155.028-155.028s-155.028,69.409-155.028,155.028H66.295
	c0-104.771,84.934-189.705,189.705-189.705s189.705,84.934,189.705,189.705H411.028z"/>
<path d="M501.801,334.371c5.633,0,10.199-4.566,10.199-10.199s-4.566-10.199-10.199-10.199h-11.449
	c-2.5-58.83-26.584-113.781-68.477-155.676C377.567,113.991,318.659,89.591,256,89.591s-121.567,24.401-165.874,68.707
	c-41.894,41.894-65.978,96.844-68.477,155.676h-11.45C4.566,313.973,0,318.539,0,324.172s4.566,10.199,10.199,10.199H501.801z
	 M76.79,313.973C82.095,219.72,160.443,144.666,256,144.666s173.904,75.054,179.21,169.307h-14.306
	c-5.287-86.374-77.222-155.028-164.903-155.028S96.385,227.599,91.098,313.973H76.79z M146.325,313.973
	C151.489,258,198.702,214.021,256,214.021S360.511,258,365.675,313.973H146.325z M386.155,313.973
	c-5.22-67.237-61.601-120.351-130.155-120.351s-124.936,53.113-130.155,120.351h-14.319
	c5.249-75.121,68.041-134.629,144.474-134.629s139.225,59.508,144.474,134.629H386.155z M455.647,313.973
	C450.323,208.462,362.81,124.268,256,124.268S61.677,208.462,56.353,313.973H42.056C47.395,200.586,141.316,109.989,256,109.989
	s208.605,90.597,213.944,203.984H455.647z"/>
<path d="M117.299,116.939c1.887,0,3.797-0.523,5.502-1.619c13.595-8.733,28.093-16.143,43.091-22.027
	c5.243-2.057,7.827-7.976,5.77-13.219c-2.057-5.244-7.978-7.827-13.219-5.77c-16.243,6.372-31.943,14.398-46.663,23.853
	c-4.74,3.044-6.113,9.354-3.07,14.093C110.657,115.284,113.942,116.939,117.299,116.939z"/>
<path d="M365.694,101.984c7.341,3.648,14.591,7.717,21.546,12.091c1.687,1.062,3.566,1.568,5.421,1.568
	c3.389,0,6.704-1.689,8.643-4.77c3-4.768,1.566-11.064-3.203-14.064c-7.53-4.738-15.379-9.142-23.33-13.093
	c-5.047-2.507-11.167-0.449-13.672,4.595C358.593,93.355,360.65,99.477,365.694,101.984z"/>
<path d="M411.732,131.652c11.423,9.301,22.079,19.687,31.674,30.87c2.017,2.352,4.872,3.559,7.745,3.559
	c2.351,0,4.713-0.808,6.637-2.459c4.276-3.668,4.767-10.106,1.099-14.382c-10.382-12.101-21.914-23.341-34.275-33.405
	c-4.367-3.556-10.792-2.899-14.348,1.469C406.707,121.672,407.364,128.097,411.732,131.652z"/>
<path d="M78.23,147.726c2.537,0,5.078-0.94,7.055-2.834c4.185-4.009,8.568-7.923,13.028-11.63
	c4.332-3.601,4.923-10.031,1.322-14.364c-3.599-4.331-10.03-4.923-14.364-1.322c-4.826,4.012-9.57,8.247-14.099,12.586
	c-4.067,3.897-4.206,10.353-0.309,14.421C72.867,146.673,75.546,147.726,78.23,147.726z"/>
<path d="M448.765,356.81c0-5.633-4.566-10.199-10.199-10.199H56.096c-5.633,0-10.199,4.566-10.199,10.199
	s4.566,10.199,10.199,10.199h382.47C444.199,367.009,448.765,362.443,448.765,356.81z"/>
<path d="M483.442,418.005H289.657c-5.633,0-10.199,4.566-10.199,10.199s4.566,10.199,10.199,10.199h193.785
	c5.633,0,10.199-4.566,10.199-10.199S489.075,418.005,483.442,418.005z"/>
<path d="M249.88,418.005h-27.538c-5.633,0-10.199,4.566-10.199,10.199s4.566,10.199,10.199,10.199h27.538
	c5.633,0,10.199-4.566,10.199-10.199S255.514,418.005,249.88,418.005z"/>
<path d="M229.482,393.527c0-5.633-4.566-10.199-10.199-10.199H91.793c-5.633,0-10.199,4.566-10.199,10.199
	s4.566,10.199,10.199,10.199h127.49C224.916,403.726,229.482,399.16,229.482,393.527z"/>
<g>
</g>
<g>
</g>
<g>
</g>
<g>
</g>
<g>
</g>
<g>
</g>
<g>
</g>
<g>
</g>
<g>
</g>
<g>
</g>
<g>
</g>
<g>
</g>
<g>
</g>
<g>
</g>
<g>
</g>
</svg>
