<?xml version="1.0" encoding="iso-8859-1"?>
<!-- Generator: Adobe Illustrator 19.0.0, SVG Export Plug-In . SVG Version: 6.00 Build 0)  -->
<svg version="1.1" id="Layer_1" xmlns="http://www.w3.org/2000/svg" xmlns:xlink="http://www.w3.org/1999/xlink" x="0px" y="0px"
	 viewBox="0 0 511.995 511.995" style="enable-background:new 0 0 511.995 511.995;" xml:space="preserve">
<g>
	<polygon style="fill:#8CC63F;" points="346.341,57.504 376.225,18.028 405.899,57.504 	"/>
	<polygon style="fill:#8CC63F;" points="333.218,101.191 376.225,58.183 419.233,101.191 	"/>
</g>
<rect x="360.476" y="101.051" style="fill:#A67C52;" width="30.283" height="32.098"/>
<g>
	<polygon style="fill:#8CC63F;" points="375.173,219.971 411.612,183.53 448.052,219.971 	"/>
	<polygon style="fill:#8CC63F;" points="362.492,269.741 411.612,220.62 460.733,269.741 	"/>
	<polygon style="fill:#8CC63F;" points="382,182.906 411.612,153.293 441.225,182.906 	"/>
</g>
<rect x="398.916" y="269.582" style="fill:#A67C52;" width="24.359" height="36.66"/>
<g>
	<polygon style="fill:#8CC63F;" points="405.641,397.01 446.592,356.058 487.545,397.01 	"/>
	<polygon style="fill:#8CC63F;" points="391.389,452.944 446.592,397.741 501.796,452.944 	"/>
	<polygon style="fill:#8CC63F;" points="413.314,355.356 446.592,322.077 479.872,355.356 	"/>
</g>
<rect x="432.319" y="452.77" style="fill:#A67C52;" width="27.375" height="41.205"/>
<g>
	<polygon style="fill:#8CC63F;" points="165.65,57.504 135.765,18.028 106.093,57.504 	"/>
	<polygon style="fill:#8CC63F;" points="178.773,101.191 135.765,58.183 92.758,101.191 	"/>
</g>
<rect x="121.233" y="101.051" style="fill:#A67C52;" width="30.283" height="32.098"/>
<g>
	<polygon style="fill:#8CC63F;" points="136.819,219.971 100.379,183.53 63.938,219.971 	"/>
	<polygon style="fill:#8CC63F;" points="149.498,269.741 100.379,220.62 51.259,269.741 	"/>
	<polygon style="fill:#8CC63F;" points="129.991,182.906 100.379,153.293 70.767,182.906 	"/>
</g>
<rect x="88.719" y="269.582" style="fill:#A67C52;" width="24.359" height="36.66"/>
<g>
	<polygon style="fill:#8CC63F;" points="106.351,397.01 65.398,356.058 24.445,397.01 	"/>
	<polygon style="fill:#8CC63F;" points="120.601,452.944 65.398,397.741 10.195,452.944 	"/>
	<polygon style="fill:#8CC63F;" points="98.678,355.356 65.398,322.077 32.119,355.356 	"/>
</g>
<rect x="52.297" y="452.77" style="fill:#A67C52;" width="27.375" height="41.205"/>
<path d="M351.186,398.581c5.571-0.834,9.411-6.027,8.576-11.597L311.766,66.484c-0.833-5.571-6.033-9.41-11.598-8.576
	c-5.571,0.834-9.411,6.027-8.576,11.597l47.996,320.499c0.758,5.059,5.109,8.691,10.074,8.691
	C350.165,398.695,350.675,398.657,351.186,398.581z"/>
<path d="M366.566,432.409c-0.833-5.57-6.027-9.408-11.598-8.576c-5.571,0.834-9.411,6.027-8.576,11.598l6.878,45.93
	c0.758,5.059,5.109,8.691,10.074,8.691c0.503,0,1.012-0.038,1.524-0.114c5.571-0.834,9.411-6.027,8.576-11.597L366.566,432.409z"/>
<path d="M203.627,111.917c-5.574-0.85-10.77,2.979-11.618,8.548l-54.468,357.849c-0.848,5.569,2.979,10.77,8.548,11.618
	c0.52,0.08,1.037,0.117,1.547,0.117c4.955,0,9.303-3.618,10.071-8.666l54.468-357.849
	C213.023,117.966,209.196,112.765,203.627,111.917z"/>
<path d="M211.847,57.912c-5.572-0.846-10.77,2.979-11.618,8.548l-1.921,12.618c-0.848,5.569,2.979,10.77,8.548,11.618
	c0.52,0.08,1.037,0.117,1.547,0.117c4.955,0,9.303-3.618,10.071-8.666l1.921-12.618C221.244,63.961,217.416,58.759,211.847,57.912z"
	/>
<path d="M255.49,425.415c-5.633,0-10.199,4.566-10.199,10.199v31.617c0,5.633,4.566,10.199,10.199,10.199
	s10.199-4.566,10.199-10.199v-31.617C265.69,429.981,261.123,425.415,255.49,425.415z"/>
<path d="M255.49,178.821c-5.633,0-10.199,4.566-10.199,10.199v61.648c0,5.633,4.566,10.199,10.199,10.199
	s10.199-4.566,10.199-10.199V189.02C265.69,183.387,261.123,178.821,255.49,178.821z"/>
<path d="M255.49,302.118c-5.633,0-10.199,4.566-10.199,10.199v61.648c0,5.633,4.566,10.199,10.199,10.199
	s10.199-4.566,10.199-10.199v-61.648C265.69,306.684,261.123,302.118,255.49,302.118z"/>
<path d="M255.49,85.556c-5.633,0-10.199,4.566-10.199,10.199v31.617c0,5.633,4.566,10.199,10.199,10.199s10.199-4.566,10.199-10.199
	V95.755C265.69,90.122,261.123,85.556,255.49,85.556z"/>
<path d="M333.218,111.39h17.056v21.761c0,5.633,4.566,10.199,10.199,10.199h30.283c5.633,0,10.199-4.566,10.199-10.199V111.39
	h18.277c4.125,0,7.844-2.486,9.423-6.296c1.579-3.81,0.706-8.198-2.21-11.115L400.17,67.703h5.73c3.866,0,7.398-2.185,9.125-5.643
	c1.727-3.459,1.35-7.595-0.972-10.685l-29.674-39.476c-1.923-2.558-4.935-4.065-8.136-4.07c-3.194,0.024-6.217,1.491-8.149,4.043
	L338.21,51.347c-2.337,3.086-2.724,7.23-1.001,10.697c1.724,3.467,5.261,5.659,9.132,5.659h5.941l-26.276,26.276
	c-2.917,2.917-3.789,7.304-2.21,11.115S329.093,111.39,333.218,111.39z M376.197,34.963l9.276,12.341h-18.619L376.197,34.963z
	 M357.841,90.992l18.384-18.384l18.384,18.384H357.841z M380.558,122.952h-9.885V111.39h9.885V122.952z"/>
<path d="M411.612,143.094c-2.705,0-5.3,1.075-7.212,2.987l-29.612,29.612c-2.917,2.917-3.789,7.305-2.21,11.115
	c1.579,3.811,5.297,6.296,9.423,6.296h5.614l-19.654,19.654c-2.917,2.917-3.789,7.304-2.21,11.115
	c1.579,3.811,5.297,6.296,9.423,6.296h12.467l-32.359,32.359c-2.917,2.917-3.789,7.304-2.21,11.115
	c1.579,3.811,5.297,6.296,9.423,6.296h26.221v26.304c0,5.633,4.566,10.199,10.199,10.199h24.358c5.633,0,10.199-4.566,10.199-10.199
	V279.94h27.261c4.125,0,7.844-2.486,9.423-6.296c1.579-3.81,0.706-8.198-2.21-11.115l-32.359-32.359h12.466
	c4.125,0,7.844-2.486,9.423-6.296c1.579-3.81,0.706-8.198-2.21-11.114l-19.654-19.654h5.614c4.125,0,7.844-2.486,9.423-6.296
	c1.579-3.81,0.706-8.198-2.21-11.114l-29.612-29.612C416.912,144.168,414.317,143.094,411.612,143.094z M413.072,296.044h-3.959
	V279.94h3.959V296.044z M387.115,259.541l24.497-24.497l24.497,24.497H387.115z M423.429,209.771h-23.634l11.817-11.817
	L423.429,209.771z M411.612,167.717l4.989,4.989h-9.979L411.612,167.717z"/>
<path d="M509.008,445.733l-38.522-38.522h17.06c4.125,0,7.844-2.486,9.423-6.296c1.579-3.81,0.706-8.198-2.21-11.115l-24.243-24.243
	h9.358c4.125,0,7.844-2.486,9.423-6.296c1.579-3.81,0.706-8.198-2.21-11.115l-33.279-33.279c-3.983-3.983-10.441-3.983-14.425,0
	l-33.279,33.279c-2.917,2.917-3.789,7.304-2.21,11.115c1.579,3.811,5.297,6.296,9.423,6.296h9.358l-24.243,24.243
	c-2.917,2.917-3.789,7.305-2.21,11.115c1.579,3.811,5.297,6.296,9.423,6.296h17.06l-38.522,38.522
	c-2.917,2.917-3.789,7.304-2.21,11.115c1.579,3.811,5.297,6.296,9.423,6.296h30.732v30.824c0,5.633,4.566,10.199,10.199,10.199
	h27.375c5.633,0,10.199-4.566,10.199-10.199v-30.824h31.896c4.125,0,7.844-2.486,9.423-6.296
	C512.797,453.037,511.924,448.65,509.008,445.733z M446.592,336.5l8.656,8.656h-17.313L446.592,336.5z M430.264,386.812l16.33-16.33
	l16.33,16.33H430.264z M449.497,483.768h-6.976v-20.625h6.976V483.768z M416.012,442.745l30.58-30.58l30.58,30.58H416.012z"/>
<path d="M92.758,111.39h18.277v21.761c0,5.633,4.566,10.199,10.199,10.199h30.283c5.633,0,10.199-4.566,10.199-10.199V111.39h17.056
	c4.125,0,7.844-2.486,9.423-6.296s0.706-8.198-2.21-11.115L159.71,67.703h5.941c3.872,0,7.409-2.192,9.132-5.659
	c1.724-3.467,1.336-7.61-1.001-10.697l-29.885-39.476c-1.929-2.548-4.937-4.043-8.132-4.043c-0.005,0-0.012,0-0.017,0
	c-3.201,0.005-6.212,1.513-8.136,4.07L97.939,51.375c-2.322,3.089-2.699,7.226-0.972,10.685s5.26,5.643,9.125,5.643h5.73
	L85.546,93.978c-2.917,2.917-3.789,7.304-2.21,11.115C84.915,108.905,88.634,111.39,92.758,111.39z M135.795,34.963l9.342,12.341
	h-18.619L135.795,34.963z M117.381,90.992l18.384-18.384l18.384,18.384H117.381z M141.319,122.952h-9.885V111.39h9.885V122.952z"/>
<path d="M51.259,279.94H78.52v26.033c0,5.633,4.566,10.199,10.199,10.199h24.358c5.633,0,10.199-4.566,10.199-10.199V279.94h26.221
	c4.125,0,7.844-2.486,9.423-6.296c1.579-3.81,0.706-8.198-2.21-11.115l-32.359-32.359h12.467c4.125,0,7.844-2.486,9.423-6.296
	c1.579-3.81,0.706-8.198-2.21-11.115l-19.654-19.654h5.614c4.125,0,7.844-2.486,9.423-6.296c1.579-3.81,0.706-8.198-2.21-11.115
	l-29.612-29.612c-1.912-1.912-4.507-2.987-7.212-2.987s-5.299,1.075-7.212,2.987l-29.612,29.612
	c-2.917,2.917-3.789,7.304-2.21,11.114c1.579,3.811,5.297,6.296,9.423,6.296h5.614l-19.654,19.654
	c-2.917,2.917-3.789,7.304-2.21,11.114c1.579,3.811,5.297,6.296,9.423,6.296h12.466l-32.359,32.359
	c-2.917,2.917-3.789,7.304-2.21,11.115S47.134,279.94,51.259,279.94z M100.379,167.717l4.989,4.989H95.39L100.379,167.717z
	 M88.562,209.771l11.817-11.817l11.817,11.817H88.562z M102.879,295.774H98.92V279.94h3.959
	C102.879,279.94,102.879,295.774,102.879,295.774z M100.379,235.044l24.497,24.497H75.882L100.379,235.044z"/>
<path d="M89.292,407.21h17.06c4.125,0,7.844-2.486,9.423-6.296c1.579-3.81,0.706-8.198-2.21-11.115l-24.243-24.243h9.358
	c4.125,0,7.844-2.486,9.423-6.296c1.579-3.81,0.706-8.198-2.21-11.115l-33.279-33.279c-3.983-3.983-10.441-3.983-14.425,0
	l-33.279,33.279c-2.917,2.917-3.789,7.304-2.21,11.115c1.579,3.811,5.297,6.296,9.423,6.296h9.358l-24.243,24.243
	c-2.917,2.917-3.789,7.305-2.21,11.115c1.579,3.811,5.297,6.296,9.423,6.296h17.06L2.987,445.733
	c-2.917,2.917-3.789,7.304-2.21,11.115s5.297,6.296,9.423,6.296h31.901v30.824c0,5.633,4.566,10.199,10.199,10.199h27.375
	c5.633,0,10.199-4.566,10.199-10.199v-30.824h30.732c4.125,0,7.844-2.486,9.423-6.296c1.579-3.81,0.706-8.198-2.21-11.115
	L89.292,407.21z M65.398,336.5l8.656,8.656H56.742L65.398,336.5z M49.069,386.812l16.33-16.33l16.33,16.33H49.069z M69.47,483.768
	h-6.976v-20.625h6.976V483.768z M34.818,442.745l30.58-30.58l30.58,30.58H34.818z"/>
<g>
</g>
<g>
</g>
<g>
</g>
<g>
</g>
<g>
</g>
<g>
</g>
<g>
</g>
<g>
</g>
<g>
</g>
<g>
</g>
<g>
</g>
<g>
</g>
<g>
</g>
<g>
</g>
<g>
</g>
</svg>
