<?xml version="1.0" encoding="iso-8859-1"?>
<!-- Generator: Adobe Illustrator 19.0.0, SVG Export Plug-In . SVG Version: 6.00 Build 0)  -->
<svg version="1.1" id="Layer_1" xmlns="http://www.w3.org/2000/svg" xmlns:xlink="http://www.w3.org/1999/xlink" x="0px" y="0px"
	 viewBox="0 0 512 512" style="enable-background:new 0 0 512 512;" xml:space="preserve">
<polygon style="fill:#29ABE2;" points="378.39,286.598 76.494,286.598 95.873,352.893 341.673,352.893 "/>
<g>
	<polygon style="fill:#F2F2F2;" points="326.375,240.701 194.533,240.701 194.533,53.036 	"/>
	<polygon style="fill:#F2F2F2;" points="125.97,240.701 193.785,240.701 193.785,130.24 	"/>
</g>
<path d="M501.801,342.693h-37.737c-5.632,0-10.199,4.566-10.199,10.199s4.567,10.199,10.199,10.199h37.737
	c5.632,0,10.199-4.566,10.199-10.199S507.433,342.693,501.801,342.693z"/>
<path d="M378.39,352.893c0,5.633,4.567,10.199,10.199,10.199h27.539c5.632,0,10.199-4.566,10.199-10.199
	s-4.567-10.199-10.199-10.199H388.59C382.958,342.693,378.39,347.26,378.39,352.893z"/>
<path d="M164.207,393.689c-15.747,0-28.558,12.811-28.558,28.558c0,4.499-3.661,8.159-8.159,8.159s-8.159-3.66-8.159-8.159
	c0-15.747-12.811-28.558-28.558-28.558s-28.558,12.811-28.558,28.558c0,5.633,4.566,10.199,10.199,10.199
	s10.199-4.566,10.199-10.199c0-4.499,3.66-8.159,8.159-8.159s8.159,3.66,8.159,8.159c0,15.747,12.811,28.558,28.558,28.558
	s28.558-12.811,28.558-28.558c0-4.499,3.66-8.159,8.159-8.159c4.499,0,8.159,3.66,8.159,8.159c0,5.633,4.566,10.199,10.199,10.199
	c5.633,0,10.199-4.566,10.199-10.199C192.765,406.5,179.954,393.689,164.207,393.689z"/>
<path d="M439.586,430.407c-5.632,0-10.199,4.566-10.199,10.199c0,4.499-3.66,8.159-8.159,8.159c-4.499,0-8.159-3.66-8.159-8.159
	c0-15.747-12.811-28.558-28.558-28.558s-28.558,12.811-28.558,28.558c0,4.499-3.66,8.159-8.159,8.159
	c-4.499,0-8.159-3.66-8.159-8.159c0-5.633-4.567-10.199-10.199-10.199c-5.632,0-10.199,4.566-10.199,10.199
	c0,15.747,12.811,28.558,28.558,28.558s28.558-12.811,28.558-28.558c0-4.499,3.66-8.159,8.159-8.159c4.499,0,8.159,3.66,8.159,8.159
	c0,15.747,12.811,28.558,28.558,28.558s28.558-12.811,28.558-28.558C449.785,434.973,445.218,430.407,439.586,430.407z"/>
<path d="M341.673,363.092c3.709,0,7.125-2.013,8.922-5.258l36.717-66.295c1.75-3.16,1.698-7.009-0.136-10.12
	c-1.834-3.111-5.175-5.021-8.787-5.021H203.984v-25.498h122.39c3.805,0,7.296-2.119,9.051-5.496
	c1.755-3.378,1.483-7.452-0.705-10.565L202.879,47.174c-2.558-3.64-7.178-5.204-11.42-3.861c-4.242,1.34-7.124,5.276-7.124,9.725
	v73.104l-67.057,109.225c-1.933,3.147-2.012,7.094-0.209,10.316c1.803,3.223,5.208,5.219,8.901,5.219h57.615V276.4H76.494
	c-3.211,0-6.235,1.513-8.161,4.082c-1.926,2.57-2.529,5.896-1.628,8.978l15.561,53.234H10.199C4.566,342.694,0,347.26,0,352.893
	s4.566,10.199,10.199,10.199L341.673,363.092L341.673,363.092z M204.733,85.295l102.012,145.206H204.733L204.733,85.295
	L204.733,85.295z M183.586,230.502h-39.386l39.386-64.155V230.502z M361.082,296.797l-25.419,45.896H103.518l-13.416-45.896H361.082
	z"/>
<path d="M134.629,330.454h6.12c5.633,0,10.199-4.566,10.199-10.199s-4.566-10.199-10.199-10.199h-6.12
	c-5.633,0-10.199,4.566-10.199,10.199S128.996,330.454,134.629,330.454z"/>
<path d="M185.626,330.454h6.12c5.633,0,10.199-4.566,10.199-10.199s-4.566-10.199-10.199-10.199h-6.12
	c-5.633,0-10.199,4.566-10.199,10.199S179.992,330.454,185.626,330.454z"/>
<path d="M241.721,330.454h6.12c5.633,0,10.199-4.566,10.199-10.199s-4.566-10.199-10.199-10.199h-6.12
	c-5.633,0-10.199,4.566-10.199,10.199S236.088,330.454,241.721,330.454z"/>
<path d="M292.717,330.454h6.12c5.632,0,10.199-4.566,10.199-10.199s-4.567-10.199-10.199-10.199h-6.12
	c-5.632,0-10.199,4.566-10.199,10.199S287.085,330.454,292.717,330.454z"/>
<g>
</g>
<g>
</g>
<g>
</g>
<g>
</g>
<g>
</g>
<g>
</g>
<g>
</g>
<g>
</g>
<g>
</g>
<g>
</g>
<g>
</g>
<g>
</g>
<g>
</g>
<g>
</g>
<g>
</g>
</svg>
