<?xml version="1.0" encoding="iso-8859-1"?>
<!-- Generator: Adobe Illustrator 19.0.0, SVG Export Plug-In . SVG Version: 6.00 Build 0)  -->
<svg version="1.1" id="Layer_1" xmlns="http://www.w3.org/2000/svg" xmlns:xlink="http://www.w3.org/1999/xlink" x="0px" y="0px"
	 viewBox="0 0 512 512" style="enable-background:new 0 0 512 512;" xml:space="preserve">
<g>
	<circle style="fill:#E6E6E6;" cx="415.618" cy="392.669" r="47.426"/>
	<circle style="fill:#E6E6E6;" cx="415.618" cy="317.195" r="28.048"/>
	<circle style="fill:#E6E6E6;" cx="415.618" cy="271.808" r="17.339"/>
	<path style="fill:#E6E6E6;" d="M363.092,176.21c-11.439,0-20.714-9.273-20.714-20.714c0-10.751,8.191-19.587,18.672-20.612
		c-0.103-0.902-0.162-1.816-0.162-2.746c0-13.144,10.655-23.798,23.798-23.798c5.931,0,11.351,2.174,15.517,5.764
		c4.351-5.647,11.177-9.288,18.857-9.288c13.144,0,23.798,10.655,23.798,23.798c0,0.088-0.005,0.174-0.007,0.262
		c1.152-0.171,2.332-0.262,3.532-0.262c13.144,0,23.798,10.655,23.798,23.798c0,13.144-10.655,23.798-23.798,23.798L363.092,176.21
		L363.092,176.21z"/>
	<path style="fill:#E6E6E6;" d="M63.745,237.405c-13.238,0-23.968-10.731-23.968-23.968c0-12.44,9.478-22.665,21.606-23.851
		c-0.119-1.043-0.188-2.102-0.188-3.177c0-15.209,12.329-27.538,27.538-27.538c6.863,0,13.134,2.516,17.956,6.669
		c5.035-6.535,12.934-10.749,21.821-10.749c15.209,0,27.538,12.329,27.538,27.538c0,0.102-0.006,0.202-0.008,0.304
		c1.334-0.199,2.699-0.304,4.088-0.304c15.209,0,27.538,12.329,27.538,27.538s-12.329,27.538-27.538,27.538H63.745z"/>
	<path style="fill:#E6E6E6;" d="M262.433,130.588c9.403,0,17.026-7.623,17.026-17.026c0-8.837-6.733-16.099-15.348-16.943
		c0.085-0.74,0.134-1.493,0.134-2.257c0-10.803-8.758-19.561-19.561-19.561c-4.875,0-9.329,1.787-12.755,4.738
		c-3.577-4.642-9.187-7.635-15.501-7.635c-10.803,0-19.561,8.758-19.561,19.561c0,0.072,0.005,0.144,0.005,0.216
		c-0.947-0.141-1.916-0.216-2.904-0.216c-10.803,0-19.561,8.758-19.561,19.561s8.758,19.561,19.561,19.561h68.465V130.588z"/>
</g>
<path d="M501.801,370.741h-32.904c-4.91-11.885-13.685-21.774-24.75-28.108c6.038-6.765,9.718-15.678,9.718-25.438
	c0-12.41-5.945-23.454-15.133-30.447c2.794-4.307,4.423-9.435,4.423-14.94c0-15.185-12.353-27.538-27.538-27.538
	c-15.185,0-27.538,12.353-27.538,27.538c0,5.505,1.63,10.634,4.423,14.94c-9.187,6.993-15.133,18.036-15.133,30.447
	c0,9.76,3.68,18.673,9.718,25.438c-17.363,9.939-29.096,28.637-29.096,50.036c0,31.775,25.851,57.625,57.626,57.625
	s57.625-25.851,57.625-57.625c0-0.513-0.025-1.02-0.039-1.53h28.597c5.633,0,10.199-4.566,10.199-10.199
	C512,375.307,507.434,370.741,501.801,370.741z M408.478,271.808c0-3.937,3.203-7.139,7.139-7.139c3.937,0,7.139,3.203,7.139,7.139
	c0,3.937-3.203,7.139-7.139,7.139C411.681,278.948,408.478,275.745,408.478,271.808z M397.769,317.195
	c0-9.841,8.007-17.849,17.849-17.849c9.841,0,17.849,8.007,17.849,17.849c0,9.841-8.007,17.849-17.849,17.849
	C405.776,335.043,397.769,327.036,397.769,317.195z M415.618,429.896c-20.527,0-37.227-16.7-37.227-37.227
	s16.7-37.227,37.227-37.227c20.527,0,37.227,16.7,37.227,37.227S436.144,429.896,415.618,429.896z"/>
<path d="M331.474,370.741h-28.558c-5.633,0-10.199,4.566-10.199,10.199c0,5.633,4.566,10.199,10.199,10.199h28.558
	c5.633,0,10.199-4.566,10.199-10.199C341.673,375.307,337.107,370.741,331.474,370.741z"/>
<path d="M275.378,380.94c0-5.633-4.566-10.199-10.199-10.199H10.199C4.566,370.741,0,375.307,0,380.94
	c0,5.633,4.566,10.199,10.199,10.199h254.98C270.812,391.139,275.378,386.573,275.378,380.94z"/>
<path d="M316.175,421.737H154.008c-5.633,0-10.199,4.566-10.199,10.199s4.566,10.199,10.199,10.199h162.167
	c5.633,0,10.199-4.566,10.199-10.199S321.808,421.737,316.175,421.737z"/>
<path d="M107.092,421.737H85.673c-5.633,0-10.199,4.566-10.199,10.199s4.566,10.199,10.199,10.199h21.418
	c5.633,0,10.199-4.566,10.199-10.199S112.725,421.737,107.092,421.737z"/>
<path d="M363.092,186.409h83.294c18.746,0,33.997-15.251,33.997-33.997c0-16.965-12.493-31.069-28.762-33.594
	c-4.216-13.986-17.217-24.201-32.559-24.201c-7.407,0-14.422,2.35-20.192,6.629c-4.417-2.03-9.253-3.104-14.183-3.104
	c-16.995,0-31.117,12.536-33.607,28.844c-11.218,4.688-18.899,15.716-18.899,28.511
	C332.179,172.542,346.047,186.409,363.092,186.409z M362.044,145.036c2.722-0.266,5.223-1.615,6.942-3.742s2.51-4.856,2.198-7.573
	c-0.064-0.563-0.096-1.08-0.096-1.581c0-7.498,6.1-13.599,13.599-13.599c3.249,0,6.396,1.169,8.862,3.293
	c2.122,1.828,4.906,2.706,7.69,2.418c2.786-0.285,5.334-1.702,7.044-3.921c2.603-3.378,6.532-5.315,10.779-5.315
	c7.467,0,13.547,6.048,13.599,13.503l-0.005,0.186c-0.051,2.997,1.22,5.865,3.473,7.841c2.254,1.977,5.267,2.862,8.228,2.419
	c0.672-0.1,1.355-0.151,2.029-0.151c7.498,0,13.599,6.1,13.599,13.599s-6.1,13.599-13.599,13.599h-83.292
	c-5.797,0-10.514-4.717-10.514-10.514C352.577,150.061,356.648,145.564,362.044,145.036z"/>
<path d="M63.745,247.605h96.382c20.808,0,37.737-16.929,37.737-37.737c0-19.182-14.385-35.066-32.933-37.433
	c-4.358-16.024-19.036-27.842-36.421-27.842c-8.548,0-16.627,2.82-23.171,7.935c-5.133-2.518-10.81-3.855-16.606-3.855
	c-19.174,0-35.056,14.376-37.431,32.916c-12.851,4.974-21.724,17.391-21.724,31.849C29.578,232.277,44.905,247.605,63.745,247.605z
	 M62.376,199.737c2.721-0.266,5.222-1.615,6.941-3.74c1.719-2.127,2.511-4.855,2.2-7.571c-0.082-0.714-0.121-1.373-0.121-2.016
	c0-9.561,7.778-17.339,17.339-17.339c4.144,0,8.157,1.49,11.3,4.198c2.122,1.828,4.908,2.703,7.69,2.418
	c2.787-0.284,5.334-1.702,7.045-3.921c3.318-4.306,8.327-6.775,13.742-6.775c9.53,0,17.289,7.728,17.339,17.246l-0.007,0.247
	c-0.044,2.993,1.229,5.854,3.482,7.826c2.253,1.971,5.26,2.85,8.219,2.412c0.858-0.127,1.728-0.193,2.586-0.193
	c9.561,0,17.339,7.778,17.339,17.339s-7.778,17.339-17.339,17.339H63.745c-7.592,0-13.769-6.177-13.769-13.769
	C49.976,206.318,55.307,200.428,62.376,199.737z"/>
<path d="M193.967,140.787h68.465c15.011,0,27.225-12.214,27.225-27.225c0-10.916-6.347-20.37-15.725-24.705
	c-2.589-13.789-14.721-24.255-29.25-24.255c-3.955,0-7.842,0.79-11.44,2.29c-4.881-3.356-10.695-5.187-16.814-5.187
	c-13.033,0-24.136,8.421-28.154,20.108c-13.695,2.664-24.066,14.75-24.066,29.213C164.207,127.436,177.558,140.787,193.967,140.787z
	 M193.967,101.664c0.464,0,0.934,0.035,1.397,0.104c2.945,0.44,5.94-0.43,8.191-2.384c2.251-1.953,3.535-4.794,3.515-7.774
	c-0.001-0.086-0.002-0.17-0.005-0.258c0.061-5.111,4.237-9.25,9.362-9.25c2.923,0,5.628,1.335,7.421,3.662
	c1.709,2.218,4.257,3.636,7.044,3.921c2.789,0.286,5.568-0.591,7.69-2.418c1.2-1.034,3.233-2.266,6.099-2.266
	c5.163,0,9.362,4.2,9.362,9.362c0,0.344-0.021,0.702-0.066,1.092c-0.312,2.717,0.479,5.445,2.198,7.573s4.219,3.476,6.942,3.742
	c3.501,0.342,6.142,3.262,6.142,6.792c0,3.765-3.062,6.826-6.826,6.826h-68.465c-5.163,0-9.362-4.2-9.362-9.363
	S188.806,101.664,193.967,101.664z"/>
<path d="M63.235,270.788v9.179c0,5.633,4.566,10.199,10.199,10.199s10.199-4.566,10.199-10.199v-9.179
	c0-5.633-4.566-10.199-10.199-10.199S63.235,265.155,63.235,270.788z"/>
<path d="M135.649,298.326v8.159c0,5.633,4.566,10.199,10.199,10.199c5.633,0,10.199-4.566,10.199-10.199v-8.159
	c0-5.633-4.566-10.199-10.199-10.199C140.216,288.127,135.649,292.693,135.649,298.326z"/>
<path d="M86.693,340.143v6.12c0,5.633,4.566,10.199,10.199,10.199s10.199-4.566,10.199-10.199v-6.12
	c0-5.633-4.566-10.199-10.199-10.199S86.693,334.51,86.693,340.143z"/>
<path d="M251.92,185.115v3.06c0,5.633,4.566,10.199,10.199,10.199s10.199-4.566,10.199-10.199v-3.06
	c0-5.633-4.566-10.199-10.199-10.199S251.92,179.482,251.92,185.115z"/>
<path d="M231.522,251.41c0-5.633-4.566-10.199-10.199-10.199c-5.633,0-10.199,4.566-10.199,10.199v8.159
	c0,5.633,4.566,10.199,10.199,10.199c5.633,0,10.199-4.566,10.199-10.199V251.41z"/>
<path d="M221.323,284.047c-5.633,0-10.199,4.566-10.199,10.199v26.518c0,5.633,4.566,10.199,10.199,10.199
	c5.633,0,10.199-4.566,10.199-10.199v-26.518C231.522,288.613,226.956,284.047,221.323,284.047z"/>
<path d="M366.151,228.972c5.633,0,10.199-4.566,10.199-10.199v-9.179c0-5.633-4.566-10.199-10.199-10.199
	s-10.199,4.566-10.199,10.199v9.179C355.952,224.405,360.518,228.972,366.151,228.972z"/>
<path d="M305.976,296.286c5.633,0,10.199-4.566,10.199-10.199v-6.12c0-5.633-4.566-10.199-10.199-10.199
	s-10.199,4.566-10.199,10.199v6.12C295.777,291.72,300.343,296.286,305.976,296.286z"/>
<path d="M461.004,214.693c-5.633,0-10.199,4.566-10.199,10.199v4.08c0,5.633,4.566,10.199,10.199,10.199s10.199-4.566,10.199-10.199
	v-4.08C471.203,219.259,466.637,214.693,461.004,214.693z"/>
<g>
</g>
<g>
</g>
<g>
</g>
<g>
</g>
<g>
</g>
<g>
</g>
<g>
</g>
<g>
</g>
<g>
</g>
<g>
</g>
<g>
</g>
<g>
</g>
<g>
</g>
<g>
</g>
<g>
</g>
</svg>
