<?xml version="1.0" encoding="iso-8859-1"?>
<!-- Generator: Adobe Illustrator 19.0.0, SVG Export Plug-In . SVG Version: 6.00 Build 0)  -->
<svg version="1.1" id="Layer_1" xmlns="http://www.w3.org/2000/svg" xmlns:xlink="http://www.w3.org/1999/xlink" x="0px" y="0px"
	 viewBox="0 0 512 512" style="enable-background:new 0 0 512 512;" xml:space="preserve">
<path style="fill:#FBB03B;" d="M256,64.255c-69.847,0-126.47,56.623-126.47,126.47c0,31.098,11.231,59.568,29.849,81.594H352.62
	c18.619-22.025,29.85-50.495,29.85-81.594C382.47,120.878,325.847,64.255,256,64.255z"/>
<path d="M501.801,262.12H372.53c13.085-21.364,20.139-46.09,20.139-71.394c0-75.36-61.309-136.669-136.669-136.669
	s-136.669,61.309-136.669,136.669c0,25.304,7.055,50.03,20.139,71.394H10.199C4.566,262.12,0,266.686,0,272.319
	s4.566,10.199,10.199,10.199h491.602c5.632,0,10.199-4.566,10.199-10.199S507.433,262.12,501.801,262.12z M139.729,190.725
	c0-64.112,52.159-116.271,116.271-116.271c64.111,0,116.271,52.159,116.271,116.271c0,25.883-8.671,51.054-24.507,71.394H164.236
	C148.399,241.779,139.729,216.608,139.729,190.725z"/>
<path d="M170.86,322.295h176.933c5.632,0,10.199-4.566,10.199-10.199c0-5.633-4.567-10.199-10.199-10.199H170.86
	c-5.633,0-10.199,4.566-10.199,10.199C160.661,317.729,165.227,322.295,170.86,322.295z"/>
<path d="M302.916,335.554h-87.18c-5.633,0-10.199,4.566-10.199,10.199s4.566,10.199,10.199,10.199h87.18
	c5.632,0,10.199-4.566,10.199-10.199S308.548,335.554,302.916,335.554z"/>
<path d="M272.319,368.191h-25.985c-5.633,0-10.199,4.566-10.199,10.199s4.566,10.199,10.199,10.199h25.985
	c5.632,0,10.199-4.566,10.199-10.199S277.951,368.191,272.319,368.191z"/>
<path d="M472.223,301.896h-11.719c-5.632,0-10.199,4.566-10.199,10.199c0,5.633,4.567,10.199,10.199,10.199h11.719
	c5.632,0,10.199-4.566,10.199-10.199C482.422,306.463,477.855,301.896,472.223,301.896z"/>
<path d="M390.629,322.295h33.352c5.632,0,10.199-4.566,10.199-10.199c0-5.633-4.567-10.199-10.199-10.199h-33.352
	c-5.632,0-10.199,4.566-10.199,10.199C380.43,317.729,384.997,322.295,390.629,322.295z"/>
<path d="M75.974,368.191c5.633,0,10.199-4.566,10.199-10.199s-4.566-10.199-10.199-10.199H64.255
	c-5.633,0-10.199,4.566-10.199,10.199s4.566,10.199,10.199,10.199H75.974z"/>
<path d="M112.496,368.191h33.352c5.633,0,10.199-4.566,10.199-10.199s-4.566-10.199-10.199-10.199h-33.352
	c-5.633,0-10.199,4.566-10.199,10.199S106.863,368.191,112.496,368.191z"/>
<path d="M425.307,385.53c-15.747,0-28.558,12.811-28.558,28.558c0,4.499-3.66,8.159-8.159,8.159c-4.499,0-8.159-3.66-8.159-8.159
	c0-15.747-12.811-28.558-28.558-28.558s-28.558,12.811-28.558,28.558c0,5.633,4.567,10.199,10.199,10.199
	c5.632,0,10.199-4.566,10.199-10.199c0-4.499,3.66-8.159,8.159-8.159c4.499,0,8.159,3.66,8.159,8.159
	c0,15.747,12.811,28.558,28.558,28.558s28.558-12.811,28.558-28.558c0-4.499,3.66-8.159,8.159-8.159c4.499,0,8.159,3.66,8.159,8.159
	c0,5.633,4.567,10.199,10.199,10.199c5.632,0,10.199-4.566,10.199-10.199C453.865,398.341,441.053,385.53,425.307,385.53z"/>
<path d="M180.526,419.187c-5.633,0-10.199,4.566-10.199,10.199c0,4.499-3.66,8.159-8.159,8.159c-4.499,0-8.159-3.66-8.159-8.159
	c0-15.747-12.811-28.558-28.558-28.558s-28.558,12.811-28.558,28.558c0,4.499-3.66,8.159-8.159,8.159s-8.159-3.66-8.159-8.159
	c0-5.633-4.566-10.199-10.199-10.199s-10.199,4.566-10.199,10.199c0,15.747,12.811,28.558,28.558,28.558
	s28.558-12.811,28.558-28.558c0-4.499,3.66-8.159,8.159-8.159c4.499,0,8.159,3.66,8.159,8.159c0,15.747,12.811,28.558,28.558,28.558
	s28.558-12.811,28.558-28.558C190.725,423.753,186.159,419.187,180.526,419.187z"/>
<path d="M197.89,113.499c-24.573,18.307-39.243,47.508-39.243,78.114c0,5.633,4.566,10.199,10.199,10.199
	s10.199-4.566,10.199-10.199c0-24.556,11.31-47.064,31.031-61.756c4.517-3.365,5.451-9.755,2.086-14.272
	C208.797,111.067,202.407,110.133,197.89,113.499z"/>
<path d="M256,94.26c-4.955,0-9.934,0.376-14.798,1.119c-5.568,0.85-9.393,6.053-8.544,11.622c0.77,5.047,5.117,8.662,10.071,8.662
	c0.511,0,1.03-0.039,1.551-0.118c3.849-0.587,7.792-0.885,11.721-0.885c5.632,0,10.199-4.566,10.199-10.199
	C266.2,98.827,261.632,94.26,256,94.26z"/>
<g>
</g>
<g>
</g>
<g>
</g>
<g>
</g>
<g>
</g>
<g>
</g>
<g>
</g>
<g>
</g>
<g>
</g>
<g>
</g>
<g>
</g>
<g>
</g>
<g>
</g>
<g>
</g>
<g>
</g>
</svg>
