<?xml version="1.0" encoding="iso-8859-1"?>
<!-- Generator: Adobe Illustrator 19.0.0, SVG Export Plug-In . SVG Version: 6.00 Build 0)  -->
<svg version="1.1" id="Layer_1" xmlns="http://www.w3.org/2000/svg" xmlns:xlink="http://www.w3.org/1999/xlink" x="0px" y="0px"
	 viewBox="0 0 512 512" style="enable-background:new 0 0 512 512;" xml:space="preserve">
<path style="fill:#29ABE2;" d="M166.247,364.622v-260.08V62.725h183.586v41.817V382.98h-31.618c-10.139,0-18.359-8.22-18.359-18.359
	s-8.22-18.359-18.359-18.359s-18.359,8.22-18.359,18.359s-8.22,18.359-18.359,18.359s-18.359-8.22-18.359-18.359
	s-8.22-18.359-18.359-18.359s-18.359,8.22-18.359,18.359H166.247z"/>
<path d="M289.657,364.622c0,15.747,12.811,28.558,28.558,28.558h31.618c5.632,0,10.199-4.566,10.199-10.199V62.725
	c0-5.633-4.567-10.199-10.199-10.199H166.247c-5.632,0-10.199,4.566-10.199,10.199v274.532c-2.587-0.773-5.324-1.194-8.159-1.194
	c-15.747,0-28.558,12.811-28.558,28.558c0,5.633,4.567,10.199,10.199,10.199c5.632,0,10.199-4.566,10.199-10.199
	c0-4.499,3.66-8.159,8.159-8.159c4.499,0,8.159,3.66,8.159,8.159c0,5.633,4.567,10.199,10.199,10.199h23.458
	c5.632,0,10.199-4.566,10.199-10.199c0-4.499,3.66-8.159,8.159-8.159s8.159,3.66,8.159,8.159c0,15.747,12.811,28.558,28.558,28.558
	s28.558-12.811,28.558-28.558c0-4.499,3.66-8.159,8.159-8.159S289.657,360.122,289.657,364.622z M252.94,364.622
	c0,4.499-3.66,8.159-8.159,8.159s-8.159-3.66-8.159-8.159c0-15.747-12.811-28.558-28.558-28.558
	c-12.155,0-22.561,7.634-26.675,18.359h-4.943V72.924h53.036v194.805c0,5.633,4.567,10.199,10.199,10.199
	c5.632,0,10.199-4.566,10.199-10.199V72.924h54.056v194.805c0,5.633,4.567,10.199,10.199,10.199s10.199-4.566,10.199-10.199V72.924
	h15.299v299.857h-21.418c-4.499,0-8.159-3.66-8.159-8.159c0-15.747-12.811-28.558-28.558-28.558S252.94,348.874,252.94,364.622z"/>
<path d="M223.363,402.359c-5.632,0-10.199,4.566-10.199,10.199c0,4.499-3.661,8.159-8.159,8.159c-4.499,0-8.159-3.66-8.159-8.159
	c0-15.747-12.811-28.558-28.558-28.558s-28.558,12.811-28.558,28.558c0,4.499-3.661,8.159-8.159,8.159
	c-4.499,0-8.159-3.66-8.159-8.159c0-5.633-4.567-10.199-10.199-10.199s-10.199,4.566-10.199,10.199
	c0,15.747,12.811,28.558,28.558,28.558c15.747,0,28.558-12.811,28.558-28.558c0-4.499,3.66-8.159,8.159-8.159
	c4.499,0,8.159,3.66,8.159,8.159c0,15.747,12.811,28.558,28.558,28.558s28.558-12.811,28.558-28.558
	C233.562,406.925,228.995,402.359,223.363,402.359z"/>
<path d="M405.928,420.717c-5.632,0-10.199,4.566-10.199,10.199c0,4.499-3.66,8.159-8.159,8.159s-8.159-3.66-8.159-8.159
	c0-15.747-12.811-28.558-28.558-28.558s-28.558,12.811-28.558,28.558c0,4.499-3.66,8.159-8.159,8.159s-8.159-3.66-8.159-8.159
	c0-5.633-4.567-10.199-10.199-10.199c-5.632,0-10.199,4.566-10.199,10.199c0,15.747,12.811,28.558,28.558,28.558
	s28.558-12.811,28.558-28.558c0-4.499,3.66-8.159,8.159-8.159s8.159,3.66,8.159,8.159c0,15.747,12.811,28.558,28.558,28.558
	s28.558-12.811,28.558-28.558C416.128,425.283,411.56,420.717,405.928,420.717z"/>
<path d="M114.231,72.924h17.338c5.632,0,10.199-4.566,10.199-10.199s-4.567-10.199-10.199-10.199h-17.338
	c-5.632,0-10.199,4.566-10.199,10.199S108.599,72.924,114.231,72.924z"/>
<path d="M76.494,52.526H10.199C4.567,52.526,0,57.092,0,62.725s4.567,10.199,10.199,10.199h66.295
	c5.632,0,10.199-4.566,10.199-10.199S82.126,52.526,76.494,52.526z"/>
<path d="M201.944,79.044c-5.632,0-10.199,4.566-10.199,10.199v120.351c0,5.633,4.567,10.199,10.199,10.199
	s10.199-4.566,10.199-10.199V89.243C212.143,83.611,207.576,79.044,201.944,79.044z"/>
<path d="M277.418,79.044c-5.632,0-10.199,4.566-10.199,10.199v120.351c0,5.633,4.567,10.199,10.199,10.199
	s10.199-4.566,10.199-10.199V89.243C287.618,83.611,283.05,79.044,277.418,79.044z"/>
<path d="M201.944,238.151c-5.632,0-10.199,4.566-10.199,10.199v63.235c0,5.633,4.567,10.199,10.199,10.199
	s10.199-4.566,10.199-10.199v-63.235C212.143,242.718,207.576,238.151,201.944,238.151z"/>
<path d="M277.418,238.151c-5.632,0-10.199,4.566-10.199,10.199v63.235c0,5.633,4.567,10.199,10.199,10.199
	s10.199-4.566,10.199-10.199v-63.235C287.618,242.718,283.05,238.151,277.418,238.151z"/>
<path d="M501.801,52.526H388.59c-5.632,0-10.199,4.566-10.199,10.199s4.567,10.199,10.199,10.199h113.211
	c5.632,0,10.199-4.566,10.199-10.199S507.433,52.526,501.801,52.526z"/>
<path d="M314.135,331.984c5.632,0,10.199-4.566,10.199-10.199v-16.319c0-5.633-4.567-10.199-10.199-10.199
	s-10.199,4.566-10.199,10.199v16.319C303.936,327.418,308.503,331.984,314.135,331.984z"/>
<path d="M239.681,295.267c-5.632,0-10.199,4.566-10.199,10.199v16.319c0,5.633,4.567,10.199,10.199,10.199
	c5.632,0,10.199-4.566,10.199-10.199v-16.319C249.88,299.833,245.313,295.267,239.681,295.267z"/>
<path d="M379.41,356.462c4.499,0,8.159,3.66,8.159,8.159c0,5.633,4.567,10.199,10.199,10.199c5.632,0,10.199-4.566,10.199-10.199
	c0-15.747-12.811-28.558-28.558-28.558c-5.632,0-10.199,4.566-10.199,10.199C369.211,351.896,373.778,356.462,379.41,356.462z"/>
<g>
</g>
<g>
</g>
<g>
</g>
<g>
</g>
<g>
</g>
<g>
</g>
<g>
</g>
<g>
</g>
<g>
</g>
<g>
</g>
<g>
</g>
<g>
</g>
<g>
</g>
<g>
</g>
<g>
</g>
</svg>
