<?xml version="1.0" encoding="iso-8859-1"?>
<!-- Generator: Adobe Illustrator 19.0.0, SVG Export Plug-In . SVG Version: 6.00 Build 0)  -->
<svg version="1.1" id="Layer_1" xmlns="http://www.w3.org/2000/svg" xmlns:xlink="http://www.w3.org/1999/xlink" x="0px" y="0px"
	 viewBox="0 0 511.999 511.999" style="enable-background:new 0 0 511.999 511.999;" xml:space="preserve">
<g>
	<path style="fill:#E6E6E6;" d="M425.779,159.628c0-8.996-7.294-16.289-16.289-16.289c-8.996,0-16.289,7.293-16.289,16.289
		c0,4.529,1.852,8.624,4.836,11.577l-6.058,226.246h35.022l-6.058-226.246C423.927,168.253,425.779,164.158,425.779,159.628z"/>
	<ellipse style="fill:#E6E6E6;" cx="409.49" cy="98.548" rx="13.031" ry="44.795"/>
	<path style="fill:#E6E6E6;" d="M395.383,167.773c-3.598-6.233-23.884-1.258-45.31,11.112c-9.892,5.711-18.29,11.998-24.119,17.727
		c-25.15-13.869-48.28-19.199-52.528-11.841c-4.432,7.677,13.368,26.253,39.758,41.49c26.391,15.237,51.377,21.365,55.81,13.688
		c3.377-5.849-6.158-18.021-22.554-30.224c5.276-2.179,10.927-4.954,16.664-8.267C384.53,189.085,398.981,174.006,395.383,167.773z"
		/>
	
		<ellipse transform="matrix(-0.866 -0.5 0.5 -0.866 767.7281 586.0871)" style="fill:#E6E6E6;" cx="462.387" cy="190.185" rx="44.794" ry="13.031"/>
	<path style="fill:#E6E6E6;" d="M118.797,159.628c0-8.996-7.293-16.289-16.289-16.289s-16.289,7.293-16.289,16.289
		c0,4.529,1.852,8.624,4.836,11.577l-6.059,226.246h35.022l-6.058-226.246C116.945,168.253,118.797,164.158,118.797,159.628z"/>
	<ellipse style="fill:#E6E6E6;" cx="102.504" cy="98.548" rx="13.031" ry="44.795"/>
	
		<ellipse transform="matrix(-0.5 -0.866 0.866 -0.5 -90.2831 328.2055)" style="fill:#E6E6E6;" cx="49.602" cy="190.165" rx="13.031" ry="44.794"/>
	<path style="fill:#E6E6E6;" d="M276.113,174.739c0-11.082-8.983-20.064-20.064-20.064c-11.082,0-20.064,8.983-20.064,20.064
		c0,5.58,2.281,10.624,5.957,14.26l-7.462,278.678h43.138l-7.462-278.678C273.832,185.362,276.113,180.318,276.113,174.739z"/>
	<ellipse style="fill:#E6E6E6;" cx="256.053" cy="99.496" rx="16.051" ry="55.173"/>
	<path style="fill:#E6E6E6;" d="M238.673,184.77c-4.252-7.365-27.418-2.02-52.594,11.876c-5.83-5.739-14.243-12.04-24.156-17.762
		c-21.425-12.37-41.711-17.345-45.31-11.112c-3.598,6.233,10.853,21.314,32.278,33.683c5.761,3.326,11.435,6.112,16.729,8.294
		c-16.375,12.194-25.891,24.353-22.517,30.197c4.432,7.677,29.419,1.549,55.81-13.688
		C225.304,211.021,243.105,192.448,238.673,184.77z"/>
</g>
<path d="M451.675,407.647c5.631,0,10.197-4.565,10.197-10.197s-4.566-10.197-10.197-10.197h-14.747l-5.083-189.841
	c5.51,4.45,11.968,8.851,18.932,12.872c5.608,3.238,27.265,15.099,43.427,15.099c6.755,0,12.553-2.075,15.812-7.719
	c4.33-7.5,1.563-16.481-8.223-26.693c-6.744-7.039-16.612-14.467-27.786-20.919c-5.042-2.911-23.058-12.792-38.388-14.755
	c-1.067-6.456-4.471-12.135-9.319-16.125c5.967-14.259,6.42-34.808,6.42-40.631c0-9.183-1.121-54.993-23.228-54.993
	c-22.107,0-23.228,45.809-23.228,54.993c0,5.823,0.453,26.372,6.42,40.631c-4.847,3.991-8.252,9.668-9.319,16.126
	c-15.329,1.965-33.346,11.844-38.388,14.755c-7.675,4.431-14.734,9.324-20.587,14.233c-10.194-5.11-25.378-11.655-38.262-12.859
	c-0.943-8.627-5.526-16.174-12.177-21.07c7.783-16.944,8.349-43.582,8.349-50.861c0-10.916-1.265-65.373-26.248-65.373
	s-26.248,54.456-26.248,65.373c0,7.279,0.565,33.918,8.349,50.861c-6.651,4.896-11.233,12.443-12.178,21.07
	c-12.91,1.207-28.131,7.776-38.326,12.89c-5.861-4.921-12.933-9.825-20.625-14.266c-5.042-2.911-23.058-12.792-38.389-14.755
	c-1.067-6.456-4.471-12.135-9.319-16.125c5.967-14.259,6.42-34.808,6.42-40.631c0-9.183-1.121-54.993-23.228-54.993
	S79.281,89.358,79.281,98.542c0,5.823,0.453,26.372,6.42,40.631c-4.847,3.991-8.252,9.668-9.319,16.126
	c-15.329,1.965-33.346,11.844-38.388,14.755c-11.174,6.451-21.043,13.881-27.786,20.919c-9.788,10.213-12.555,19.194-8.223,26.693
	c3.259,5.646,9.054,7.719,15.812,7.719c16.16,0,37.819-11.862,43.427-15.099c6.964-4.021,13.422-8.422,18.932-12.871L77.14,310.009
	H14.278c-5.631,0-10.197,4.565-10.197,10.197s4.566,10.197,10.197,10.197h62.316l-1.522,56.854H60.423
	c-5.631,0-10.196,4.565-10.196,10.197c0,5.632,4.566,10.197,10.196,10.197h84.27c5.631,0,10.197-4.565,10.197-10.197
	c0-5.632-4.566-10.197-10.197-10.197h-14.748l-5.083-189.841c5.51,4.45,11.968,8.851,18.932,12.872
	c0.77,0.445,1.844,1.052,3.164,1.769c-10.833,10.304-18.775,22.441-12.684,32.991c3.552,6.154,9.961,8.442,17.531,8.442
	c19.046,0,45.443-14.491,52.208-18.398c4.318-2.493,16.372-9.759,27.002-18.978l-2.514,93.896h-23.616
	c-5.631,0-10.197,4.565-10.197,10.197s4.566,10.197,10.197,10.197h23.071l-3.403,127.079h-16.657
	c-5.631,0-10.197,4.565-10.197,10.197s4.566,10.197,10.197,10.197h96.308c5.631,0,10.197-4.565,10.197-10.197
	s-4.566-10.197-10.197-10.197h-16.658l-3.403-127.079h99.431l-1.522,56.854h-14.646c-5.63,0-10.197,4.565-10.197,10.197
	c0,5.632,4.566,10.197,10.197,10.197h84.27V407.647z M403.396,159.628c0-3.359,2.734-6.092,6.093-6.092
	c3.36,0,6.093,2.734,6.093,6.092c0,3.36-2.734,6.093-6.093,6.093C406.13,165.721,403.396,162.987,403.396,159.628z M409.49,71.813
	c1.537,6.21,2.835,15.295,2.835,26.729s-1.298,20.519-2.835,26.729c-1.537-6.21-2.835-15.295-2.835-26.729
	S407.953,78.024,409.49,71.813z M355.171,187.715c9.904-5.717,18.419-9.135,24.566-10.909c-4.61,4.435-11.829,10.103-21.732,15.82
	c-3.679,2.124-7.15,3.913-10.391,5.433c-1.441-0.995-2.83-1.927-4.144-2.788C346.841,192.833,350.728,190.28,355.171,187.715z
	 M246.182,174.739c0-5.441,4.427-9.868,9.868-9.868c5.441,0,9.868,4.426,9.868,9.868c0,5.441-4.427,9.867-9.868,9.867
	C250.609,184.606,246.182,180.18,246.182,174.739z M356.577,232.778c-7.599-1.176-21.389-5.588-38.296-15.349
	c-16.908-9.762-27.623-19.497-32.439-25.49c7.599,1.175,21.388,5.588,38.295,15.349C341.045,217.05,351.76,226.784,356.577,232.778z
	 M256.05,58.658c2.783,7.169,5.855,21.316,5.855,40.84s-3.073,33.671-5.855,40.84c-2.783-7.169-5.855-21.316-5.855-40.84
	S253.267,65.827,256.05,58.658z M96.414,159.628c0-3.359,2.734-6.092,6.093-6.092c3.36,0,6.093,2.734,6.093,6.092
	c0,3.36-2.734,6.093-6.093,6.093C99.148,165.721,96.414,162.987,96.414,159.628z M102.508,71.813
	c1.537,6.21,2.835,15.295,2.835,26.729s-1.298,20.519-2.835,26.729c-1.537-6.21-2.835-15.295-2.835-26.729
	S100.971,78.024,102.508,71.813z M51.024,192.626c-9.904,5.717-18.419,9.134-24.565,10.909c4.61-4.435,11.828-10.102,21.731-15.82
	c9.904-5.717,18.419-9.135,24.566-10.909C68.145,181.241,60.926,186.908,51.024,192.626z M95.469,387.254l5.387-201.197
	c0.547,0.034,1.096,0.057,1.652,0.057c0.556,0,1.104-0.022,1.652-0.057l5.387,201.197H95.469z M153.991,192.626
	c-9.904-5.718-17.121-11.384-21.732-15.82c6.146,1.775,14.664,5.192,24.566,10.909c4.464,2.578,8.369,5.142,11.748,7.59
	c-1.311,0.86-2.696,1.788-4.132,2.781C161.184,196.56,157.693,194.763,153.991,192.626z M193.816,217.43
	c-16.909,9.762-30.696,14.174-38.296,15.349c4.818-5.994,15.532-15.727,32.44-25.49c16.908-9.762,30.696-14.174,38.295-15.349
	C221.44,197.933,210.724,207.667,193.816,217.43z M244.954,457.48l6.768-252.795c1.414,0.204,2.858,0.314,4.327,0.314
	s2.913-0.111,4.327-0.314l6.768,252.795H244.954z M283.597,310.008l-2.514-93.895c10.631,9.219,22.684,16.485,27.002,18.978
	c6.766,3.906,33.161,18.398,52.208,18.398c7.568,0,13.979-2.291,17.531-8.443c6.098-10.561-1.87-22.715-12.722-33.025
	c1.289-0.7,2.343-1.297,3.1-1.733c6.964-4.021,13.422-8.422,18.932-12.872l-3.015,112.593H283.597V310.008z M402.452,387.254
	l5.387-201.197c0.547,0.034,1.096,0.057,1.652,0.057s1.104-0.022,1.652-0.057l5.387,201.197H402.452z M460.973,192.626
	c-9.904-5.718-17.121-11.384-21.732-15.82c6.146,1.775,14.664,5.192,24.566,10.909s17.121,11.384,21.731,15.82
	C479.393,201.76,470.876,198.343,460.973,192.626z"/>
<path d="M497.823,310.008H462.71c-5.631,0-10.197,4.565-10.197,10.197c0,5.632,4.566,10.197,10.197,10.197h35.113
	c5.631,0,10.197-4.565,10.197-10.197C508.02,314.573,503.454,310.008,497.823,310.008z"/>
<path d="M178.966,320.204c0-5.632-4.566-10.197-10.197-10.197h-14.044c-5.631,0-10.197,4.565-10.197,10.197
	c0,5.632,4.566,10.197,10.197,10.197h14.044C174.4,330.401,178.966,325.836,178.966,320.204z"/>
<path d="M353.36,457.48h-14.044c-5.631,0-10.197,4.565-10.197,10.197c0,5.632,4.566,10.197,10.197,10.197h14.044
	c5.631,0,10.197-4.565,10.197-10.197C363.557,462.045,358.992,457.48,353.36,457.48z"/>
<path d="M172.782,457.48h-14.045c-5.631,0-10.197,4.565-10.197,10.197c0,5.632,4.566,10.197,10.197,10.197h14.045
	c5.631,0,10.197-4.565,10.197-10.197C182.979,462.045,178.414,457.48,172.782,457.48z"/>
<g>
</g>
<g>
</g>
<g>
</g>
<g>
</g>
<g>
</g>
<g>
</g>
<g>
</g>
<g>
</g>
<g>
</g>
<g>
</g>
<g>
</g>
<g>
</g>
<g>
</g>
<g>
</g>
<g>
</g>
</svg>
